<svg width="17" height="16" viewBox="0 0 17 16" fill="none" xmlns="http://www.w3.org/2000/svg">
<g clip-path="url(#clip0_151_2402)">
<path d="M14.6952 7.87164C14.91 7.84984 15.0664 7.65942 15.0445 7.44633C14.7101 4.16369 12.1567 1.62813 8.94822 1.22637L9.03332 0.896699C9.08197 0.706105 9.03951 0.500919 8.91938 0.347776C8.80491 0.201314 8.63471 0.117798 8.45177 0.117798H7.66464C7.47657 0.117798 7.30283 0.20571 7.18836 0.359029C7.06858 0.519556 7.03232 0.730545 7.09088 0.923424L7.18199 1.22408C3.95191 1.62039 1.38971 4.17283 1.06824 7.47745C1.04754 7.6909 1.20465 7.88061 1.41943 7.90171C1.43217 7.90277 1.44491 7.90312 1.45765 7.90312C1.65668 7.90312 1.82653 7.75314 1.84617 7.55217C2.1572 4.35323 4.82785 1.94057 8.05776 1.94057C11.273 1.94057 13.942 4.34092 14.2669 7.52404C14.2888 7.73767 14.481 7.89257 14.6952 7.87164ZM7.89835 0.894062H8.2269L8.15631 1.1687C8.12322 1.16835 8.09102 1.16413 8.05776 1.16413C8.03175 1.16413 8.00681 1.16729 7.98098 1.16764L7.89835 0.894062Z" fill="#A46850"/>
<path d="M15.7043 8.32178H14.9993H1.12374H0.519552C0.30406 8.32178 0.128906 8.49584 0.128906 8.71017C0.128906 8.9245 0.30406 9.09857 0.519552 9.09857H0.790599C0.963983 9.74015 1.54889 10.2163 2.24898 10.2163H3.73743C4.22379 10.8051 5.67155 12.5486 5.67155 12.5486C5.68146 12.56 5.6919 12.5713 5.70322 12.5822L7.99898 14.7589L8.23021 14.9584L7.91706 15.1745C7.74014 15.2971 7.69608 15.5395 7.8194 15.715C7.89548 15.8238 8.0172 15.8822 8.14034 15.8822C8.21783 15.8822 8.2955 15.8594 8.36344 15.8124L11.3828 13.7134L12.4585 14.7174C12.534 14.7881 12.6303 14.8229 12.7264 14.8229C12.8302 14.8229 12.9342 14.7819 13.011 14.7007C13.1588 14.544 13.151 14.2982 12.994 14.1518L11.6523 12.8988C11.5297 12.7847 11.354 12.7685 11.211 12.8398C11.1537 12.6543 11.1466 12.4573 11.1972 12.2659C11.2788 11.9585 11.4346 11.6709 11.6475 11.4349L12.5397 10.4478C12.5983 10.3833 12.6319 10.3014 12.6381 10.2165H13.8748C14.5745 10.2165 15.1591 9.74033 15.3324 9.09874H15.7043C15.9204 9.09874 16.0952 8.92468 16.0952 8.71035C16.0952 8.49602 15.9202 8.32178 15.7043 8.32178ZM11.0661 10.9162C10.7707 11.2434 10.5543 11.6413 10.4414 12.0681C10.3278 12.498 10.3742 12.9454 10.5706 13.3409L8.89208 14.5013L8.52532 14.1852L6.25964 12.0361C6.14004 11.8926 5.32284 10.9078 4.74996 10.2163H5.33381C5.33381 10.2163 6.65578 11.3379 6.66568 11.3449C7.10711 11.6543 8.12017 11.9297 8.6083 11.9297C9.29972 11.9297 9.96778 11.6399 10.4412 11.1348C10.5997 10.9658 10.7459 10.8162 10.8595 10.701C11.0511 10.5067 11.2611 10.3652 11.4831 10.2798C11.5677 10.2478 11.6372 10.2298 11.6931 10.2214L11.0661 10.9162ZM9.87029 10.6049C9.54369 10.9533 9.08369 11.1531 8.6083 11.1531C8.23605 11.1531 7.4192 10.9122 7.12887 10.719L6.53688 10.2163H10.2432C10.136 10.3263 10.0101 10.4559 9.87029 10.6049ZM13.8748 9.43984H11.7696C11.7639 9.43984 11.7581 9.43984 11.7519 9.43984H2.24898C1.98784 9.43984 1.75784 9.3034 1.6278 9.09857H14.4952C14.3652 9.3034 14.1359 9.43984 13.8748 9.43984Z" fill="#A46850"/>
<path d="M12.6978 6.51374C12.904 6.45027 13.019 6.23243 12.9547 6.02777C12.2262 3.70284 10.1617 3.03243 10.0741 3.00465C9.86937 2.94152 9.65017 3.05352 9.58488 3.25748C9.5196 3.46108 9.63283 3.67963 9.83788 3.74522C9.90971 3.76843 11.6048 4.33212 12.2083 6.25827C12.2607 6.42478 12.4148 6.5315 12.5814 6.5315C12.6202 6.53168 12.6595 6.5257 12.6978 6.51374Z" fill="#A46850"/>
</g>
<defs>
<clipPath id="clip0_151_2402">
<rect width="16.1" height="16" fill="white" transform="translate(0.0429688)"/>
</clipPath>
</defs>
</svg>
