<svg width="7" height="18" viewBox="0 0 7 18" fill="none" xmlns="http://www.w3.org/2000/svg">
<path d="M1.87463 13.8746C1.66752 13.8746 1.5 14.0427 1.5 14.2504C1.5 14.4569 1.66756 14.625 1.87463 14.625C2.08174 14.625 2.24982 14.4569 2.24982 14.2504C2.24982 14.0428 2.08174 13.8746 1.87463 13.8746Z" fill="#A46850"/>
<path d="M3.37519 14.625C3.16808 14.625 3 14.7931 3 14.9996C3 15.2073 3.16808 15.3754 3.37519 15.3754C3.5823 15.3754 3.75038 15.2073 3.75038 14.9996C3.75038 14.7931 3.5823 14.625 3.37519 14.625Z" fill="#A46850"/>
<path d="M4.87519 13.8746C4.66812 13.8746 4.5 14.0428 4.5 14.2504C4.5 14.4569 4.66808 14.625 4.87519 14.625C5.0823 14.625 5.24982 14.4569 5.24982 14.2504C5.24982 14.0428 5.08226 13.8746 4.87519 13.8746Z" fill="#A46850"/>
<path d="M5.62504 10.4997C6.24633 10.4997 6.75005 9.99655 6.75005 9.37498C6.75005 8.75369 6.24633 8.24997 5.62504 8.24997H3.75022V7.87503H6.75005C6.75005 6.1378 5.43773 4.70739 3.75022 4.52088V0.37519V0.374909C3.75022 0.167802 3.58213 0 3.37503 0C3.16792 0 2.99984 0.167802 2.99984 0.374909V0.37519V4.52088C1.31232 4.70739 0 6.1378 0 7.87503H2.99984V8.24994H1.12501C0.503723 8.24994 0 8.75366 0 9.37494C0 9.99651 0.503723 10.4997 1.12501 10.4997H2.99984V11.3588C1.67981 11.7675 0.536699 11.2863 0.524606 11.2814C0.479008 11.2611 0.428488 11.2501 0.37519 11.2501C0.168083 11.2501 0 11.4181 0 11.6247C0 11.7785 0.0922859 11.9103 0.224123 11.9685C0.224685 11.9685 0.225775 11.9691 0.226865 11.9696C0.227955 11.9702 0.229607 11.9707 0.230697 11.9707C0.311452 12.0059 0.972289 12.2762 1.8891 12.2762C2.2297 12.2762 2.60542 12.2388 2.99984 12.1377V12.7497H0V16.5004H2.99984V17.6248C2.99984 17.6248 2.99984 17.6248 2.99984 17.6254C2.99984 17.8319 3.16792 18 3.37503 18C3.58213 18 3.75022 17.8319 3.75022 17.6254C3.75022 17.6248 3.75022 17.6248 3.75022 17.6248V16.5004H6.75005V12.7497H3.75022V11.8917C5.07024 11.4824 6.21335 11.9636 6.22436 11.9686C6.27048 11.9883 6.3216 12.0004 6.37486 12.0004C6.58197 12.0004 6.75005 11.8324 6.75005 11.6247C6.75005 11.472 6.65777 11.3401 6.52593 11.2819C6.52537 11.2813 6.52428 11.2808 6.52262 11.2808C6.52154 11.2797 6.52045 11.2797 6.51932 11.2786C6.40889 11.2314 5.20756 10.7414 3.75018 11.1116V10.4997H5.62504ZM2.07698 7.12496C2.33682 6.67728 2.82131 6.37514 3.37503 6.37514C3.58213 6.37514 3.75022 6.20706 3.75022 5.99995C3.75022 5.79285 3.58213 5.62501 3.37503 5.62501C2.3956 5.62501 1.56281 6.25122 1.25354 7.12493H0.85803C0.980551 6.71131 1.2052 6.33253 1.51887 6.0189C2.01489 5.52313 2.67408 5.25013 3.37503 5.25013C4.07598 5.25013 4.73516 5.52313 5.23119 6.0189C5.54485 6.33257 5.7695 6.71131 5.89202 7.12496H2.07698ZM6.00024 13.5001V15.75H0.749819V13.5001H6.00024ZM1.12501 9.75042C0.918464 9.75042 0.749819 9.58177 0.749819 9.37494C0.749819 9.1684 0.918464 9.00004 1.12501 9.00004H5.62504C5.83159 9.00004 6.00024 9.1684 6.00024 9.37494C6.00024 9.58177 5.83159 9.75042 5.62504 9.75042H1.12501Z" fill="#A46850"/>
</svg>
