<svg width="14" height="14" viewBox="0 0 14 14" fill="none" xmlns="http://www.w3.org/2000/svg">
<g clip-path="url(#clip0_151_2410)">
<path d="M12.7695 4.10156H11.5117V3.2107C11.9891 3.04139 12.332 2.58549 12.332 2.05078V0.410156C12.332 0.183641 12.1484 0 11.9219 0H10.2812C10.0547 0 9.87109 0.183641 9.87109 0.410156V2.05078C9.87109 2.58549 10.214 3.04139 10.6914 3.2107V4.10156H7.41016V3.06239C7.49101 3.00278 7.56993 2.94509 7.64712 2.8887C8.45012 2.30218 9.0303 1.87843 9.0303 1.181C9.0303 0.518902 8.4898 0.000246094 7.79983 0.000246094C7.44663 0.000246094 7.17639 0.133301 6.97952 0.30852C6.78264 0.133301 6.51241 0.000246094 6.15921 0.000246094C5.46924 0.000246094 4.92874 0.518902 4.92874 1.181C4.92874 1.87841 5.50889 2.30218 6.31187 2.88868C6.40202 2.95452 6.49452 3.02217 6.58984 3.09266V4.10156H3.30859V3.2107C3.78599 3.04139 4.12891 2.58549 4.12891 2.05078V0.410156C4.12891 0.183641 3.94527 0 3.71875 0H2.07812C1.85161 0 1.66797 0.183641 1.66797 0.410156V2.05078C1.66797 2.58549 2.01089 3.04139 2.48828 3.2107V4.10156H1.23047C0.551988 4.10156 0 4.65355 0 5.33203V10.2813C0 10.5078 0.183641 10.6914 0.410156 10.6914C1.0465 10.6914 1.32945 10.3754 1.53604 10.1447C1.69917 9.96253 1.78104 9.87109 2.05078 9.87109C2.32498 9.87109 2.41164 9.96439 2.58423 10.1502C2.79636 10.3786 3.08686 10.6914 3.71875 10.6914C4.35509 10.6914 4.63802 10.3754 4.84463 10.1447C5.00773 9.96253 5.08963 9.87109 5.35938 9.87109C5.56598 9.87109 5.66243 9.92493 5.76953 10.0319V11.9492C5.76953 12.6277 5.21754 13.1797 4.53906 13.1797H3.71875C3.49223 13.1797 3.30859 13.3633 3.30859 13.5898C3.30859 13.8164 3.49223 14 3.71875 14H10.2812C10.5078 14 10.6914 13.8164 10.6914 13.5898C10.6914 13.3633 10.5078 13.1797 10.2812 13.1797H9.46094C8.78246 13.1797 8.23047 12.6277 8.23047 11.9492V10.0319C8.33757 9.92493 8.43402 9.87109 8.64062 9.87109C8.91037 9.87109 8.99227 9.96253 9.15537 10.1447C9.36198 10.3754 9.64491 10.6914 10.2812 10.6914C10.9176 10.6914 11.2005 10.3754 11.4071 10.1447C11.5702 9.96253 11.6521 9.87109 11.9219 9.87109C12.1961 9.87109 12.2827 9.96439 12.4553 10.1502C12.6668 10.378 12.9563 10.6896 13.5844 10.6914C13.5862 10.6914 13.588 10.6914 13.5898 10.6914C13.8164 10.6914 14 10.5078 14 10.2813V5.33203C14 4.65355 13.448 4.10156 12.7695 4.10156ZM10.6914 0.820312H11.5117V2.05078C11.5117 2.27694 11.3277 2.46094 11.1016 2.46094C10.8754 2.46094 10.6914 2.27694 10.6914 2.05078V0.820312ZM5.74902 1.181C5.74902 1.00188 5.8899 0.820559 6.15918 0.820559C6.45725 0.820559 6.57308 1.1075 6.58946 1.15276C6.64054 1.32475 6.79604 1.43855 6.97566 1.44091C7.15572 1.44323 7.31516 1.32243 7.37013 1.15062C7.37119 1.14732 7.47947 0.820531 7.7998 0.820531C8.06909 0.820531 8.20996 1.00185 8.20996 1.18098C8.20996 1.46174 7.7709 1.78243 7.16324 2.22625C7.10306 2.27021 7.04195 2.31484 6.97949 2.36072C6.91701 2.31484 6.8559 2.27019 6.79569 2.22622C6.18808 1.78243 5.74902 1.46174 5.74902 1.181ZM2.48828 0.820312H3.30859V2.05078C3.30859 2.27694 3.1246 2.46094 2.89844 2.46094C2.67228 2.46094 2.48828 2.27694 2.48828 2.05078V0.820312ZM1.23047 4.92188H12.7695C12.9957 4.92188 13.1797 5.10587 13.1797 5.33203V7.66842C13.1412 7.63235 13.1018 7.59008 13.0564 7.54119C12.8443 7.31279 12.5538 7 11.9219 7C11.2855 7 11.0026 7.31598 10.796 7.54671C10.6329 7.72887 10.551 7.82031 10.2812 7.82031C10.0115 7.82031 9.92961 7.72887 9.7665 7.54671C9.55989 7.31598 9.27697 7 8.64062 7C8.00428 7 7.72136 7.31598 7.51475 7.54671C7.35164 7.72887 7.26975 7.82031 7 7.82031C6.73025 7.82031 6.64836 7.72887 6.48525 7.54671C6.27864 7.31598 5.99572 7 5.35938 7C4.72303 7 4.44011 7.31598 4.2335 7.54671C4.07039 7.72887 3.9885 7.82031 3.71875 7.82031C3.44455 7.82031 3.35789 7.72702 3.1853 7.54119C2.97317 7.31279 2.68267 7 2.05078 7C1.41444 7 1.13148 7.31598 0.924902 7.54674C0.88673 7.58937 0.853043 7.62683 0.820312 7.65953V5.33203C0.820312 5.10587 1.00431 4.92188 1.23047 4.92188ZM6.17857 13.1797C6.43664 12.8367 6.58984 12.4105 6.58984 11.9492V10.6398C6.70789 10.6722 6.84316 10.6914 7 10.6914C7.15684 10.6914 7.29211 10.6722 7.41016 10.6398V11.9492C7.41016 12.4105 7.56336 12.8367 7.82143 13.1797H6.17857ZM13.0564 9.59197C12.8443 9.36357 12.5538 9.05078 11.9219 9.05078C11.2855 9.05078 11.0026 9.36677 10.796 9.59749C10.6329 9.77966 10.551 9.87109 10.2812 9.87109C10.0115 9.87109 9.92961 9.77966 9.7665 9.59749C9.55989 9.36677 9.27697 9.05078 8.64062 9.05078C8.00428 9.05078 7.72136 9.36677 7.51475 9.59749C7.35164 9.77966 7.26975 9.87109 7 9.87109C6.73025 9.87109 6.64836 9.77966 6.48525 9.59749C6.27864 9.36677 5.99572 9.05078 5.35938 9.05078C4.72303 9.05078 4.44011 9.36677 4.2335 9.59749C4.07039 9.77966 3.9885 9.87109 3.71875 9.87109C3.44455 9.87109 3.35789 9.7778 3.1853 9.59197C2.97317 9.36357 2.68267 9.05078 2.05078 9.05078C1.41444 9.05078 1.13148 9.36677 0.924902 9.59752C0.88673 9.64015 0.853016 9.6778 0.820312 9.71048V8.58903C1.18125 8.49002 1.38037 8.26782 1.53604 8.09394C1.69917 7.91175 1.78104 7.82031 2.05078 7.82031C2.32498 7.82031 2.41164 7.91361 2.58423 8.09944C2.79636 8.32784 3.08686 8.64062 3.71875 8.64062C4.35509 8.64062 4.63802 8.32464 4.84463 8.09391C5.00773 7.91175 5.08963 7.82031 5.35938 7.82031C5.62912 7.82031 5.71102 7.91175 5.87412 8.09391C6.08073 8.32464 6.36366 8.64062 7 8.64062C7.63634 8.64062 7.91927 8.32464 8.12588 8.09391C8.28898 7.91175 8.37088 7.82031 8.64062 7.82031C8.91037 7.82031 8.99227 7.91175 9.15537 8.09391C9.36198 8.32464 9.64491 8.64062 10.2812 8.64062C10.9176 8.64062 11.2005 8.32464 11.4071 8.09391C11.5702 7.91175 11.6521 7.82031 11.9219 7.82031C12.1961 7.82031 12.2827 7.91361 12.4553 8.09944C12.615 8.27135 12.8191 8.491 13.1797 8.58916V9.71936C13.1412 9.6833 13.1018 9.64083 13.0564 9.59197Z" fill="#A46850"/>
</g>
<defs>
<clipPath id="clip0_151_2410">
<rect width="14" height="14" fill="white"/>
</clipPath>
</defs>
</svg>
