<svg width="18" height="18" viewBox="0 0 18 18" fill="none" xmlns="http://www.w3.org/2000/svg">
<path d="M9.00036 0C5.40581 0 2.48145 2.92437 2.48145 6.51888C2.48145 10.9798 8.31524 17.5287 8.56362 17.8053C8.79691 18.0651 9.20423 18.0647 9.43711 17.8053C9.68549 17.5287 15.5193 10.9798 15.5193 6.51888C15.5192 2.92437 12.5949 0 9.00036 0ZM9.00036 16.5139C7.03699 14.1817 3.65538 9.5805 3.65538 6.51895C3.65538 3.57166 6.05311 1.17394 9.00036 1.17394C11.9476 1.17394 14.3453 3.57166 14.3453 6.51892C14.3453 9.58061 10.9642 14.181 9.00036 16.5139Z" fill="#A46850"/>
<path d="M8.99952 3.23914C7.19102 3.23914 5.71973 4.71046 5.71973 6.51897C5.71973 8.32748 7.19105 9.7988 8.99952 9.7988C10.808 9.7988 12.2793 8.32748 12.2793 6.51897C12.2793 4.71046 10.808 3.23914 8.99952 3.23914ZM8.99952 8.62486C7.83831 8.62486 6.89366 7.68018 6.89366 6.51897C6.89366 5.35776 7.83835 4.41307 8.99952 4.41307C10.1607 4.41307 11.1054 5.35776 11.1054 6.51897C11.1054 7.68018 10.1607 8.62486 8.99952 8.62486Z" fill="#A46850"/>
</svg>
