<svg width="14" height="14" viewBox="0 0 14 14" fill="none" xmlns="http://www.w3.org/2000/svg">
<g clip-path="url(#clip0_151_2430)">
<path d="M3.71681 10.4512L3.13672 9.87123L3.71681 9.29114L4.2968 9.87123L3.71681 10.4512Z" fill="#A46850"/>
<path d="M6.99806 10.4513L6.41797 9.87125L6.99806 9.29126L7.57805 9.87125L6.99806 10.4513Z" fill="#A46850"/>
<path d="M10.3067 10.4513L9.72656 9.87125L10.3067 9.29126L10.8867 9.87125L10.3067 10.4513Z" fill="#A46850"/>
<path d="M13.1797 4.12891H7.18948C7.32951 3.88741 7.41016 3.60735 7.41016 3.30859C7.41016 2.56337 6.9106 1.93307 6.22893 1.73387C6.37964 1.21317 6.85944 0.820312 7.41016 0.820312V0C6.86232 0 6.3461 0.219391 5.95677 0.617691C5.65866 0.922638 5.46469 1.30235 5.39206 1.7123C5.27628 1.73964 5.16519 1.77884 5.0603 1.82936C4.51877 1.20857 3.73648 0.847656 2.89844 0.847656H1.66797V2.07812C1.66797 2.88081 1.99919 3.60735 2.53197 4.12891H0.847656V11.5117H0V12.332H0.640549L1.87102 14H12.1563L13.3868 12.332H14V11.5117H13.1797V4.12891ZM6.58984 3.30859C6.58984 3.76094 6.22188 4.12891 5.76953 4.12891C5.31718 4.12891 4.94922 3.76094 4.94922 3.30859C4.94922 2.85625 5.31718 2.48828 5.76953 2.48828C6.22188 2.48828 6.58984 2.85625 6.58984 3.30859ZM2.48828 2.07812V1.66797H2.89844C3.4922 1.66797 4.04677 1.92165 4.43332 2.35851C4.24191 2.62682 4.12891 2.95462 4.12891 3.30859C4.12891 3.60339 4.20741 3.88004 4.34413 4.1194C3.30443 4.02092 2.48828 3.14314 2.48828 2.07812ZM12.3594 4.94922V7.13191L12.2546 7.20807C11.8217 7.52295 11.24 7.52284 10.8071 7.20807L10.4812 6.97105C9.763 6.44875 8.75972 6.44875 8.04141 6.97105L7.69641 7.22206C7.26981 7.52199 6.69879 7.51643 6.27475 7.20807L5.94887 6.97105C5.22746 6.4464 4.25793 6.4464 3.53642 6.97105L3.21054 7.20807C2.77763 7.52295 2.19594 7.52295 1.76303 7.20807L1.66797 7.13885V4.94922H12.3594ZM1.66797 8.09332C2.33202 8.38374 3.09967 8.30299 3.69301 7.87148L4.019 7.63446C4.4518 7.31969 5.03349 7.31958 5.4664 7.63446L5.79239 7.87148C6.50151 8.38727 7.45769 8.39485 8.17172 7.89059L8.52399 7.63446C8.95807 7.31873 9.56454 7.31873 9.99884 7.63446L10.3247 7.87148C10.9264 8.30908 11.7005 8.38139 12.3595 8.08916V11.5117H1.66797V8.09332ZM11.7421 13.1797H2.28523L1.65985 12.332H12.3674L11.7421 13.1797Z" fill="#A46850"/>
</g>
<defs>
<clipPath id="clip0_151_2430">
<rect width="14" height="14" fill="white"/>
</clipPath>
</defs>
</svg>
