<svg width="16" height="16" viewBox="0 0 16 16" fill="none" xmlns="http://www.w3.org/2000/svg">
<g clip-path="url(#clip0_151_2415)">
<path d="M14.6019 0.845703C13.6894 1.83082 13.0431 3.04216 12.7855 4.34845C10.7936 2.14552 7.27235 1.70822 4.80157 3.34623V1.54993H3.84125V3.95072H2.88094V1.54993H1.92063V3.95072H0.960313V1.54993H0V4.46624C0 5.61846 0.828302 6.58037 1.92063 6.78911V9.35033H0.960313V13.7139C1.03938 15.6248 3.76238 15.6244 3.84125 13.7139V13.1431C6.2243 15.5026 10.3001 15.4702 12.6441 13.0464V13.4764C12.6441 14.4017 13.3968 15.1544 14.3221 15.1544C15.2473 15.1544 16 14.4016 16 13.4764V0.845703H14.6019ZM1.03288 4.91103H3.76868C3.3425 6.19199 1.45862 6.19125 1.03288 4.91103ZM2.88094 13.7139C2.88094 13.9787 2.66554 14.1941 2.40078 14.1941C2.13602 14.1941 1.92063 13.9787 1.92063 13.7139V10.3107H2.88094V13.7139ZM8.19467 13.938C6.45478 13.938 4.83774 13.0931 3.84125 11.6713V9.35036H2.88094V6.78914C3.95089 6.58466 4.7668 5.65742 4.79977 4.53663C7.19111 2.50945 10.957 3.0791 12.6446 5.71977C12.6433 7.15154 12.6446 10.1311 12.6441 11.5292C11.6571 13.0392 10.0019 13.938 8.19467 13.938ZM15.0397 13.4764C15.0397 13.8722 14.7178 14.1941 14.3221 14.1941C13.9264 14.1941 13.6044 13.8722 13.6044 13.4764V10.3107H15.0397V13.4764ZM13.6044 9.35036V5.75934C13.6044 5.67982 13.6093 5.52131 13.612 5.45889C13.6774 4.12056 14.1776 2.83784 15.0397 1.80768V9.35036H13.6044Z" fill="#A46850"/>
<path d="M8.19541 5.16711C6.28912 5.16711 4.73828 6.71799 4.73828 8.62424C4.92817 13.2106 11.4634 13.2093 11.6525 8.62421C11.6525 6.71799 10.1017 5.16711 8.19541 5.16711ZM8.19541 11.1211C6.81864 11.1211 5.69859 10.001 5.69859 8.62424C5.83573 5.31187 10.5556 5.31283 10.6922 8.62427C10.6922 10.001 9.57218 11.1211 8.19541 11.1211Z" fill="#A46850"/>
</g>
<defs>
<clipPath id="clip0_151_2415">
<rect width="16" height="16" fill="white"/>
</clipPath>
</defs>
</svg>
