<svg width="94" height="38" viewBox="0 0 94 38" fill="none" xmlns="http://www.w3.org/2000/svg">
<path d="M2.04199 2.48728H17.2947V5.88363H5.71623V11.0708H15.6892V14.4671H5.71623V23.3285H2.04199V2.48728ZM25.0486 9.03297C27.1482 9.03297 28.8978 9.73282 30.2975 11.1325C31.6972 12.5322 32.3971 14.2819 32.3971 16.3814C32.3971 18.481 31.6972 20.2306 30.2975 21.6303C28.8978 23.0301 27.1482 23.7299 25.0486 23.7299C22.9285 23.7299 21.1686 23.0301 19.7688 21.6303C18.3691 20.2306 17.6693 18.481 17.6693 16.3814C17.6693 14.2819 18.3691 12.5322 19.7688 11.1325C21.1686 9.73282 22.9285 9.03297 25.0486 9.03297ZM25.0486 20.3953C26.1396 20.3953 27.0556 20.0145 27.7966 19.2529C28.5376 18.4707 28.9081 17.5136 28.9081 16.3814C28.9081 15.2493 28.5376 14.3025 27.7966 13.5409C27.0556 12.7587 26.1396 12.3676 25.0486 12.3676C23.9577 12.3676 23.0211 12.7587 22.2389 13.5409C21.4979 14.3025 21.1274 15.2493 21.1274 16.3814C21.1274 17.5136 21.4979 18.4707 22.2389 19.2529C23.0005 20.0145 23.9371 20.3953 25.0486 20.3953ZM41.6927 9.03297C43.7922 9.03297 45.5419 9.73282 46.9416 11.1325C48.3413 12.5322 49.0411 14.2819 49.0411 16.3814C49.0411 18.481 48.3413 20.2306 46.9416 21.6303C45.5419 23.0301 43.7922 23.7299 41.6927 23.7299C39.5725 23.7299 37.8126 23.0301 36.4129 21.6303C35.0132 20.2306 34.3133 18.481 34.3133 16.3814C34.3133 14.2819 35.0132 12.5322 36.4129 11.1325C37.8126 9.73282 39.5725 9.03297 41.6927 9.03297ZM41.6927 20.3953C42.7836 20.3953 43.6996 20.0145 44.4406 19.2529C45.1816 18.4707 45.5522 17.5136 45.5522 16.3814C45.5522 15.2493 45.1816 14.3025 44.4406 13.5409C43.6996 12.7587 42.7836 12.3676 41.6927 12.3676C40.6017 12.3676 39.6651 12.7587 38.883 13.5409C38.1419 14.3025 37.7714 15.2493 37.7714 16.3814C37.7714 17.5136 38.1419 18.4707 38.883 19.2529C39.6446 20.0145 40.5811 20.3953 41.6927 20.3953ZM50.9574 16.3814C50.9574 14.3025 51.6058 12.5631 52.9026 11.1634C54.1994 9.74312 55.8152 9.03297 57.7501 9.03297C59.3557 9.03297 60.7554 9.53728 61.9492 10.5459V0.943481H65.253V23.3285H61.9492V22.217C60.7554 23.2256 59.3557 23.7299 57.7501 23.7299C55.8152 23.7299 54.1994 23.0301 52.9026 21.6303C51.6058 20.2306 50.9574 18.481 50.9574 16.3814ZM61.8875 16.3814C61.8875 15.2699 61.5273 14.323 60.8068 13.5409C60.0864 12.7587 59.2013 12.3676 58.1515 12.3676C57.1017 12.3676 56.2166 12.7587 55.4962 13.5409C54.7757 14.323 54.4155 15.2699 54.4155 16.3814C54.4155 17.5136 54.7757 18.4707 55.4962 19.2529C56.196 20.0145 57.0812 20.3953 58.1515 20.3953C59.2219 20.3953 60.107 20.0145 60.8068 19.2529C61.5273 18.4707 61.8875 17.5136 61.8875 16.3814ZM78.5292 12.769L75.4107 13.2938C75.1637 12.3676 74.3507 11.9044 72.9715 11.9044C72.3952 11.9044 71.9218 12.0176 71.5512 12.2441C71.2013 12.4499 71.0264 12.7381 71.0264 13.1086C71.0264 13.6026 71.438 13.9834 72.2614 14.251L75.102 15.2082C76.3782 15.661 77.3045 16.2168 77.8808 16.8755C78.4572 17.5341 78.7453 18.3678 78.7453 19.3764C78.7453 20.7555 78.241 21.8259 77.2324 22.5875C76.2238 23.3491 74.8961 23.7299 73.2494 23.7299C71.6027 23.7299 70.275 23.3697 69.2664 22.6492C68.258 21.9288 67.661 20.9305 67.4758 19.6543L70.5941 19.1911C70.8823 20.2821 71.7983 20.8276 73.342 20.8276C74.0007 20.8276 74.5359 20.7144 74.9476 20.4879C75.3593 20.2409 75.5651 19.9116 75.5651 19.4999C75.5651 18.9441 75.0505 18.4913 74.0213 18.1414L71.1807 17.246C70.0075 16.8549 69.1532 16.3609 68.618 15.7639C68.1036 15.1464 67.8463 14.3436 67.8463 13.3556C67.8463 11.9559 68.33 10.8855 69.2973 10.1445C70.2648 9.40348 71.5718 9.03297 73.2185 9.03297C74.7006 9.03297 75.915 9.37261 76.8619 10.0519C77.8088 10.7106 78.3645 11.6163 78.5292 12.769ZM84.3126 24.44L84.8684 23.0198L79.496 9.43436H82.9541L86.5048 18.8206L90.1481 9.43436H93.5754L87.1223 25.5516C86.4842 27.1777 85.6609 28.3716 84.6522 29.1332C83.6436 29.8948 82.3777 30.2756 80.8545 30.2756H80.3914V27.0954H80.8545C82.4395 27.0954 83.5922 26.2103 84.3126 24.44Z" fill="#E95F7E"/>
<path d="M25.044 22.6424C28.265 22.6424 30.8761 20.0313 30.8761 16.8103C30.8761 13.5893 28.265 10.9781 25.044 10.9781C21.823 10.9781 19.2119 13.5893 19.2119 16.8103C19.2119 20.0313 21.823 22.6424 25.044 22.6424Z" fill="#E95F7E"/>
<path d="M23.3281 13.7648V18.789C23.3281 19.0567 24.0651 19.7098 24.5581 20.1168V21.5985C24.3045 21.6972 24.1209 21.9653 24.1209 22.284V30.1478C24.1209 30.5498 24.4106 30.8759 24.768 30.8759H25.2214C25.5788 30.8759 25.8686 30.5498 25.8686 30.1478V22.284C25.8686 21.9653 25.6853 21.6972 25.4315 21.5985V20.1326C25.955 19.7272 26.7588 19.0601 26.7588 18.789V13.7648C26.7588 13.3626 26.5851 13.0365 26.1985 13.0365H25.9675V18.2779C25.9675 18.4025 25.8263 18.5033 25.6522 18.5033C25.4781 18.5033 25.3373 18.4025 25.3373 18.2779V13.0365H24.7536V18.2779C24.7536 18.4025 24.6128 18.5033 24.4384 18.5033C24.2641 18.5033 24.1234 18.4025 24.1234 18.2779V13.0365H24.0274C23.6413 13.0365 23.3281 13.3626 23.3281 13.7648Z" fill="white"/>
<path d="M2.01465 29.4351H5.9997V30.0526H2.68157V31.8722H5.59625V32.4897H2.68157V34.3752H6.04087V34.9927H2.01465V29.4351ZM9.22541 31.2053C9.76883 31.2053 10.2162 31.4029 10.5675 31.7981V31.2876H11.1768V34.9927H10.5675V34.4822C10.2162 34.8775 9.76883 35.0751 9.22541 35.0751C8.70395 35.0751 8.26757 34.8912 7.91627 34.5234C7.57046 34.1556 7.39755 33.6946 7.39755 33.1402C7.39755 32.5968 7.57046 32.1384 7.91627 31.7652C8.27306 31.3919 8.70944 31.2053 9.22541 31.2053ZM10.1887 32.1933C9.95271 31.9408 9.65355 31.8146 9.29128 31.8146C8.929 31.8146 8.62985 31.9408 8.39382 32.1933C8.1523 32.4513 8.03154 32.7669 8.03154 33.1402C8.03154 33.5134 8.1523 33.829 8.39382 34.087C8.62985 34.3395 8.929 34.4658 9.29128 34.4658C9.65355 34.4658 9.95271 34.3395 10.1887 34.087C10.4303 33.829 10.551 33.5134 10.551 33.1402C10.551 32.7669 10.4303 32.4513 10.1887 32.1933ZM15.5452 32.0945L14.9771 32.2015C14.9387 32.0643 14.8481 31.9545 14.7054 31.8722C14.5682 31.7844 14.3953 31.7405 14.1867 31.7405C13.9836 31.7405 13.8134 31.7844 13.6762 31.8722C13.5445 31.96 13.4786 32.0753 13.4786 32.218C13.4786 32.4211 13.6103 32.5666 13.8738 32.6544L14.7713 32.9755C15.3366 33.1786 15.6193 33.5162 15.6193 33.9882C15.6193 34.3285 15.4903 34.5948 15.2324 34.7869C14.9744 34.979 14.6395 35.0751 14.2279 35.0751C13.8326 35.0751 13.506 34.9872 13.2481 34.8116C12.9901 34.6304 12.8364 34.3917 12.787 34.0953L13.3633 34.0047C13.3963 34.1639 13.4923 34.2929 13.6515 34.3917C13.8107 34.4905 14.0055 34.5399 14.2361 34.5399C14.4666 34.5399 14.656 34.4905 14.8042 34.3917C14.9579 34.2929 15.0347 34.1639 15.0347 34.0047C15.0347 33.7906 14.8728 33.6259 14.549 33.5107L13.6762 33.206C13.1547 33.0139 12.894 32.701 12.894 32.2674C12.894 31.9326 13.0148 31.6718 13.2563 31.4852C13.5033 31.2986 13.8272 31.2053 14.2279 31.2053C14.5846 31.2053 14.8811 31.2876 15.1171 31.4523C15.3531 31.6115 15.4958 31.8255 15.5452 32.0945ZM18.0084 35.5773L18.2883 34.8939L16.8145 31.2876H17.4403L18.593 34.1611L19.7868 31.2876H20.4126L18.5271 35.7831C18.3734 36.1509 18.184 36.4199 17.959 36.59C17.7394 36.7602 17.4622 36.8453 17.1274 36.8453H16.9874V36.2607H17.1274C17.5226 36.2607 17.8163 36.0329 18.0084 35.5773ZM24.9786 29.4351H28.9637V30.0526H25.6456V31.8722H28.5602V32.4897H25.6456V34.3752H29.0049V34.9927H24.9786V29.4351ZM30.6637 34.9927V31.2876H31.2647V31.9051C31.5337 31.4386 31.97 31.2053 32.5738 31.2053C33.0075 31.2053 33.3643 31.3452 33.6442 31.6252C33.9296 31.9051 34.0724 32.2564 34.0724 32.6791V34.9927H33.4631V32.8438C33.4631 32.5419 33.3615 32.2921 33.1584 32.0945C32.9608 31.8914 32.7111 31.7899 32.4092 31.7899C32.0853 31.7899 31.8136 31.8914 31.594 32.0945C31.3745 32.2976 31.2647 32.5501 31.2647 32.852V34.9927H30.6637ZM35.5139 31.8228V31.2876H36.115V30.5219H36.716V31.2876H37.7699V31.8228H36.716V33.8236C36.716 33.9937 36.7654 34.1337 36.8642 34.2435C36.9685 34.3532 37.0975 34.4081 37.2512 34.4081H37.7699V34.9927H37.21C36.8972 34.9927 36.6364 34.8884 36.4278 34.6798C36.2193 34.4603 36.115 34.1996 36.115 33.8977V31.8228H35.5139ZM42.9522 33.346H39.774C39.8125 33.6753 39.9579 33.9525 40.2104 34.1776C40.4629 34.3972 40.7676 34.5069 41.1243 34.5069C41.5964 34.5069 41.9614 34.3285 42.2194 33.9718L42.804 34.1611C42.6338 34.4466 42.4005 34.6716 42.1041 34.8363C41.8077 34.9955 41.4811 35.0751 41.1243 35.0751C40.5535 35.0751 40.0814 34.8912 39.7082 34.5234C39.3349 34.1502 39.1483 33.6891 39.1483 33.1402C39.1483 32.5913 39.3322 32.1329 39.6999 31.7652C40.0732 31.3919 40.5288 31.2053 41.0667 31.2053C41.6046 31.2053 42.0547 31.3919 42.417 31.7652C42.7848 32.1329 42.9687 32.5913 42.9687 33.1402C42.9687 33.2225 42.9632 33.2911 42.9522 33.346ZM39.7823 32.8602H42.3429C42.2825 32.5419 42.1316 32.2811 41.8901 32.078C41.654 31.8749 41.3741 31.7734 41.0502 31.7734C40.7374 31.7734 40.4629 31.8749 40.2269 32.078C39.9909 32.2811 39.8426 32.5419 39.7823 32.8602ZM45.1846 32.9014V34.9927H44.5835V31.2876H45.1846V31.9134C45.4645 31.4413 45.9009 31.2053 46.4937 31.2053H46.6008V31.8804C46.5075 31.853 46.4169 31.8393 46.3291 31.8393C46.0052 31.8393 45.7335 31.9408 45.5139 32.1439C45.2944 32.347 45.1846 32.5995 45.1846 32.9014ZM47.6971 31.8228V31.2876H48.2981V30.5219H48.8992V31.2876H49.9531V31.8228H48.8992V33.8236C48.8992 33.9937 48.9486 34.1337 49.0474 34.2435C49.1517 34.3532 49.2807 34.4081 49.4344 34.4081H49.9531V34.9927H49.3932C49.0803 34.9927 48.8196 34.8884 48.611 34.6798C48.4024 34.4603 48.2981 34.1996 48.2981 33.8977V31.8228H47.6971ZM53.1592 31.2053C53.7026 31.2053 54.15 31.4029 54.5013 31.7981V31.2876H55.1106V34.9927H54.5013V34.4822C54.15 34.8775 53.7026 35.0751 53.1592 35.0751C52.6378 35.0751 52.2014 34.8912 51.8501 34.5234C51.5043 34.1556 51.3314 33.6946 51.3314 33.1402C51.3314 32.5968 51.5043 32.1384 51.8501 31.7652C52.2069 31.3919 52.6433 31.2053 53.1592 31.2053ZM54.1226 32.1933C53.8865 31.9408 53.5874 31.8146 53.2251 31.8146C52.8628 31.8146 52.5637 31.9408 52.3276 32.1933C52.0861 32.4513 51.9654 32.7669 51.9654 33.1402C51.9654 33.5134 52.0861 33.829 52.3276 34.087C52.5637 34.3395 52.8628 34.4658 53.2251 34.4658C53.5874 34.4658 53.8865 34.3395 54.1226 34.087C54.3641 33.829 54.4848 33.5134 54.4848 33.1402C54.4848 32.7669 54.3641 32.4513 54.1226 32.1933ZM57.5689 34.9927H56.9596V31.2876H57.5689V34.9927ZM56.8444 30.0773C56.8334 29.9071 56.8993 29.7891 57.042 29.7232C57.1902 29.6519 57.3356 29.6519 57.4784 29.7232C57.6266 29.7891 57.6924 29.9071 57.676 30.0773C57.676 30.198 57.6375 30.2996 57.5607 30.3819C57.4838 30.4588 57.385 30.4972 57.2643 30.4972C57.1435 30.4972 57.042 30.4588 56.9596 30.3819C56.8828 30.3051 56.8444 30.2035 56.8444 30.0773ZM59.4233 34.9927V31.2876H60.0243V31.9051C60.2933 31.4386 60.7297 31.2053 61.3335 31.2053C61.7671 31.2053 62.1239 31.3452 62.4038 31.6252C62.6892 31.9051 62.832 32.2564 62.832 32.6791V34.9927H62.2227V32.8438C62.2227 32.5419 62.1211 32.2921 61.918 32.0945C61.7204 31.8914 61.4707 31.7899 61.1688 31.7899C60.8449 31.7899 60.5732 31.8914 60.3537 32.0945C60.1341 32.2976 60.0243 32.5501 60.0243 32.852V34.9927H59.4233ZM65.2863 34.9927H64.677V31.2876H65.2863V34.9927ZM64.5617 30.0773C64.5507 29.9071 64.6166 29.7891 64.7593 29.7232C64.9075 29.6519 65.053 29.6519 65.1957 29.7232C65.3439 29.7891 65.4098 29.9071 65.3933 30.0773C65.3933 30.198 65.3549 30.2996 65.278 30.3819C65.2012 30.4588 65.1024 30.4972 64.9816 30.4972C64.8609 30.4972 64.7593 30.4588 64.677 30.3819C64.6001 30.3051 64.5617 30.2035 64.5617 30.0773ZM67.1407 34.9927V31.2876H67.7417V31.9051C68.0107 31.4386 68.4471 31.2053 69.0511 31.2053C69.4847 31.2053 69.8415 31.3452 70.1214 31.6252C70.4069 31.9051 70.5496 32.2564 70.5496 32.6791V34.9927H69.9403V32.8438C69.9403 32.5419 69.8387 32.2921 69.6356 32.0945C69.438 31.8914 69.1883 31.7899 68.8864 31.7899C68.5623 31.7899 68.2906 31.8914 68.0711 32.0945C67.8515 32.2976 67.7417 32.5501 67.7417 32.852V34.9927H67.1407ZM74.0248 35.0751C73.5034 35.0751 73.067 34.8912 72.7157 34.5234C72.3699 34.1556 72.197 33.6946 72.197 33.1402C72.197 32.5968 72.3699 32.1384 72.7157 31.7652C73.0725 31.3919 73.5089 31.2053 74.0248 31.2053C74.5682 31.2053 75.0156 31.4029 75.3669 31.7981V31.2876H75.9679V35.0586C75.9679 35.5965 75.7868 36.0411 75.4245 36.3924C75.0677 36.7492 74.6204 36.9276 74.0825 36.9276C73.7092 36.9276 73.3634 36.837 73.045 36.6559C72.7321 36.4748 72.5044 36.2387 72.3616 35.9478L72.9709 35.7584C73.0642 35.9286 73.2097 36.0658 73.4073 36.1701C73.6104 36.2744 73.8272 36.3266 74.0578 36.3266C74.4255 36.3266 74.7384 36.2058 74.9964 35.9643C75.2544 35.7228 75.3779 35.4209 75.3669 35.0586V34.4822C75.0156 34.8775 74.5682 35.0751 74.0248 35.0751ZM74.9882 32.1933C74.7521 31.9408 74.453 31.8146 74.0907 31.8146C73.7284 31.8146 73.4293 31.9408 73.1932 32.1933C72.9517 32.4513 72.831 32.7669 72.831 33.1402C72.831 33.5134 72.9517 33.829 73.1932 34.087C73.4293 34.3395 73.7284 34.4658 74.0907 34.4658C74.453 34.4658 74.7521 34.3395 74.9882 34.087C75.2297 33.829 75.3504 33.5134 75.3504 33.1402C75.3504 32.7669 75.2297 32.4513 74.9882 32.1933Z" fill="#414141"/>
<path d="M40.8253 21.9562C44.0463 21.9562 46.6574 19.3451 46.6574 16.1241C46.6574 12.9031 44.0463 10.292 40.8253 10.292C37.6043 10.292 34.9932 12.9031 34.9932 16.1241C34.9932 19.3451 37.6043 21.9562 40.8253 21.9562Z" fill="#E95F7E"/>
<path d="M43.9647 17.1434C43.9647 15.2383 42.8663 12.9336 41.5112 12.9336C40.1561 12.9336 39.0576 15.2383 39.0576 17.1434C39.0576 18.4843 39.6021 18.886 40.3972 19.4565C40.7365 19.7 40.9282 20.0998 40.9134 20.5171L40.5547 25.1456L40.5512 30.67C40.5318 31.2136 40.9673 31.665 41.5113 31.665C42.0553 31.665 42.4908 31.2136 42.4714 30.67L42.468 25.1487L42.1091 20.517C42.0942 20.0997 42.286 19.6999 42.6253 19.4564C43.4203 18.8859 43.9647 18.4843 43.9647 17.1434Z" fill="white"/>
</svg>
