<svg xmlns="http://www.w3.org/2000/svg" viewBox="0 0 303.67 64.27"><defs><style>.cls-1{fill:#222;}.cls-2{fill:#e95f7e;}</style></defs><g id="Слой_1" data-name="Слой 1"><path class="cls-1" d="M381.52,265.5h6.1v8h-2.95c-2.5,0-3.41,1-3.41,3.67V280h6.16v8h-6.16v23.42h-10.9V276.79C370.36,269.05,373.91,265.5,381.52,265.5Z" transform="translate(-269.11 -265.5)"/><path class="cls-1" d="M390.63,295.68c0-9.64,7-16.34,17.13-16.34s17.05,6.7,17.05,16.34-7,16.4-17.05,16.4S390.63,305.32,390.63,295.68Zm17.13,8.4c3.74,0,5.77-2.89,5.77-8.4s-2-8.33-5.77-8.33-5.84,2.89-5.84,8.33S404,304.08,407.76,304.08Z" transform="translate(-269.11 -265.5)"/><path class="cls-1" d="M428.48,295.68c0-9.64,7-16.34,17.12-16.34s17.06,6.7,17.06,16.34-7,16.4-17.06,16.4S428.48,305.32,428.48,295.68Zm17.12,8.4c3.74,0,5.78-2.89,5.78-8.4s-2-8.33-5.78-8.33-5.83,2.89-5.83,8.33S441.8,304.08,445.6,304.08Z" transform="translate(-269.11 -265.5)"/><path class="cls-1" d="M466.46,295.68c0-9.64,5.71-16.34,13.78-16.34a10.74,10.74,0,0,1,8.85,4.27V265.5H500v45.93H489.75V306.9a10.88,10.88,0,0,1-9.51,5.18C472.17,312.08,466.46,305.39,466.46,295.68Zm17,8.4c3.81,0,5.91-2.95,5.91-8.4s-2.1-8.33-5.91-8.33-5.77,2.82-5.77,8.33S479.65,304.08,483.45,304.08Z" transform="translate(-269.11 -265.5)"/><path class="cls-1" d="M505,302.18h10.56c.72,2.1,2.43,3.14,5.38,3.14s4.73-1.11,4.73-2.75-1.18-2.3-5.65-2.89c-10.17-1.24-13.71-3.8-13.71-9.9,0-6.56,5.25-10.44,14-10.44,7.94,0,13.12,3.29,14.89,9.39H524.78c-.59-1.77-2-2.63-4.4-2.63s-3.8,1-3.8,2.43c0,1.84,1.18,2.36,5.64,2.89,10.17,1.31,13.78,3.87,13.78,10,0,6.89-5.32,10.69-14.9,10.69C512.05,312.08,506.6,308.74,505,302.18Z" transform="translate(-269.11 -265.5)"/><path class="cls-1" d="M549.64,310.05,537.76,280h11.68L555,296.6l6.36-16.6h11.4l-19.61,49.39-11.44,0Z" transform="translate(-269.11 -265.5)"/><path class="cls-2" d="M312.81,268.26a17.65,17.65,0,0,0-17.65,17.65h35.32A17.65,17.65,0,0,0,312.81,268.26Z" transform="translate(-269.11 -265.5)"/><path class="cls-2" d="M343.59,285.92a30.77,30.77,0,0,1-61.54,0H269.11a43.71,43.71,0,0,0,87.42,0Z" transform="translate(-269.11 -265.5)"/><path class="cls-1" d="M371.25,320.05h8V322h-5.45v1.93h4.28v1.83h-4.28v2h5.45v1.9h-8Z" transform="translate(-269.11 -265.5)"/><path class="cls-1" d="M387.51,327.84H383.8l-.69,1.79h-2.3l3.78-9.58h2.57l3.78,9.58h-2.73Zm-.65-1.8-1.19-3.42L384.46,326Z" transform="translate(-269.11 -265.5)"/><path class="cls-1" d="M391.94,326.71h2.64c.27.84.92,1.2,2.14,1.2s1.74-.33,1.74-1-.3-.74-2-1c-3.14-.42-4.14-1.14-4.14-3s1.61-3.06,4.14-3.06c2.35,0,3.89,1,4.35,2.91h-2.64c-.25-.73-.8-1.05-1.79-1.05s-1.53.35-1.53.91.27.73,2,1c3.13.41,4.14,1.13,4.14,3s-1.59,3.15-4.37,3.15S392.39,328.76,391.94,326.71Z" transform="translate(-269.11 -265.5)"/><path class="cls-1" d="M405.62,325.74l-3.79-5.69h3.08l2.23,3.47,2.22-3.47H412l-3.79,5.69v3.89h-2.54Z" transform="translate(-269.11 -265.5)"/><path class="cls-1" d="M417.43,320.05h8V322H420v1.93h4.28v1.83H420v2h5.44v1.9h-8Z" transform="translate(-269.11 -265.5)"/><path class="cls-1" d="M429.65,323.05v6.58h-2.13v-9.58h3.05l3.46,5.5v-5.5h2.14v9.58H433.8Z" transform="translate(-269.11 -265.5)"/><path class="cls-1" d="M441.22,322h-3.13v-1.9h8.81V322h-3.14v7.68h-2.54Z" transform="translate(-269.11 -265.5)"/><path class="cls-1" d="M448.82,320.05h8V322h-5.44v1.93h4.28v1.83h-4.28v2h5.44v1.9h-8Z" transform="translate(-269.11 -265.5)"/><path class="cls-1" d="M458.91,320.05h5.59a2.82,2.82,0,0,1,3.05,3,2.78,2.78,0,0,1-2,2.88l2.34,3.7h-3l-2.17-3.57h-1.26v3.57h-2.54Zm4.88,4.11a1.11,1.11,0,1,0,0-2.21h-2.34v2.21Z" transform="translate(-269.11 -265.5)"/><path class="cls-1" d="M472.44,322h-3.13v-1.9h8.81V322H475v7.68h-2.54Z" transform="translate(-269.11 -265.5)"/><path class="cls-1" d="M484.71,327.84H481l-.69,1.79H478l3.79-9.58h2.57l3.78,9.58h-2.73Zm-.65-1.8-1.19-3.42L481.66,326Z" transform="translate(-269.11 -265.5)"/><path class="cls-1" d="M489.94,320.05h2.54v9.58h-2.54Z" transform="translate(-269.11 -265.5)"/><path class="cls-1" d="M497,323.05v6.58h-2.14v-9.58h3.05l3.47,5.5v-5.5h2.13v9.58h-2.36Z" transform="translate(-269.11 -265.5)"/><path class="cls-1" d="M505.9,320.05h2.54v9.58H505.9Z" transform="translate(-269.11 -265.5)"/><path class="cls-1" d="M513,323.05v6.58h-2.13v-9.58h3.05l3.47,5.5v-5.5h2.13v9.58h-2.36Z" transform="translate(-269.11 -265.5)"/><path class="cls-1" d="M521.45,324.84a4.81,4.81,0,0,1,5.12-4.94,4.7,4.7,0,0,1,4.69,3h-2.7a2.13,2.13,0,0,0-2-1.11c-1.53,0-2.51,1.18-2.51,3s1,3,2.61,3a2.3,2.3,0,0,0,2.38-1.89h-2.5v-1.91h4.92v5.56h-1.75l-.38-1.27a3.47,3.47,0,0,1-3.06,1.41A4.68,4.68,0,0,1,521.45,324.84Z" transform="translate(-269.11 -265.5)"/></g></svg>