<svg width="30" height="30" viewBox="0 0 30 30" fill="none" xmlns="http://www.w3.org/2000/svg">
<g clip-path="url(#clip0_62_2088)">
<path d="M12.3516 15.2917C12.6751 15.2917 12.9375 15.0294 12.9375 14.7058V14.1175C12.9375 13.7938 12.6751 13.5315 12.3516 13.5315C12.0279 13.5315 11.7656 13.7938 11.7656 14.1175V14.7058C11.7656 15.0294 12.028 15.2917 12.3516 15.2917Z" fill="#A46850"/>
<path d="M17.6484 15.2917C17.972 15.2917 18.2344 15.0294 18.2344 14.7058V14.1175C18.2344 13.7938 17.972 13.5315 17.6484 13.5315C17.3249 13.5315 17.0625 13.7938 17.0625 14.1175V14.7058C17.0625 15.0294 17.3248 15.2917 17.6484 15.2917Z" fill="#A46850"/>
<path d="M15.001 18.2323C15.5772 18.2323 16.1534 18.0131 16.592 17.5744C16.8208 17.3456 16.8208 16.9746 16.592 16.7457C16.3631 16.5169 15.9922 16.5169 15.7633 16.7457C15.5597 16.9494 15.2889 17.0615 15.0009 17.0615C14.713 17.0615 14.4422 16.9494 14.2386 16.7457C14.0097 16.5169 13.6388 16.5169 13.4099 16.7457C13.1811 16.9745 13.1811 17.3455 13.4099 17.5744C13.8486 18.0131 14.4248 18.2323 15.001 18.2323Z" fill="#A46850"/>
<path d="M24.1218 22.3241C25.1212 20.7342 24.8135 18.6357 23.378 17.4C23.7153 16.3847 23.4832 15.2415 22.7049 14.4336C23.1991 14.1221 23.5285 13.5718 23.5285 12.9456V12.9361C23.5285 11.9668 22.7399 11.1783 21.7707 11.1783H21.1752V10.2926C22.5805 9.70652 23.5285 8.31381 23.5285 6.76342C23.5285 4.25484 21.1489 2.43867 18.7462 3.06316C18.3933 1.31801 16.8477 0 15 0C13.1524 0 11.6068 1.31801 11.2539 3.06311C8.84523 2.43709 6.47166 4.26094 6.47166 6.76336C6.47166 8.31381 7.41959 9.70646 8.82496 10.2925V11.1782H8.22947C7.26022 11.1782 6.47166 11.9667 6.47166 12.936V12.9455C6.47166 13.5717 6.80096 14.122 7.29525 14.4335C6.51666 15.2417 6.28492 16.3849 6.62219 17.3999C5.18488 18.6371 4.8802 20.7362 5.87828 22.324C4.65145 23.0373 3.82422 24.3654 3.82422 25.884V29.4141C3.82422 29.7376 4.0866 30 4.41016 30H25.59C25.9135 30 26.1759 29.7376 26.1759 29.4141V25.8841C26.1759 24.3656 25.3486 23.0374 24.1218 22.3241ZM23.0068 21.8793C22.7026 21.8074 22.3859 21.7682 22.06 21.7682H17.6451V19.999C19.6253 19.0621 21.0285 17.0988 21.1639 14.7999C22.2012 15.1577 22.6596 16.3611 22.1444 17.3111C21.9994 17.5785 22.0831 17.9125 22.3372 18.0797C23.6235 18.927 23.9129 20.6688 23.0068 21.8793ZM15 23.3474L13.5269 22.0846V20.4135C14.4811 20.645 15.5181 20.6453 16.4733 20.4135V22.0846C15.9196 22.5591 15.3184 23.0745 15 23.3474ZM9.99684 12.3501H20.0032V14.4343C20.0032 17.1916 17.7539 19.4148 15.0227 19.4148H14.9773C12.2416 19.4148 9.99684 17.1877 9.99684 14.4343C9.99684 13.9178 9.99684 12.8651 9.99684 12.3501ZM22.3565 12.936V12.9456C22.3565 13.2687 22.0937 13.5315 21.7706 13.5315H21.1751V12.3501H21.7706C22.0937 12.3501 22.3565 12.613 22.3565 12.936ZM7.64354 6.76342C7.64354 5.30227 8.83229 4.11352 10.2934 4.11352C10.7175 4.11352 11.1231 4.21119 11.4987 4.40373C11.8943 4.60646 12.3644 4.3108 12.3517 3.86561L12.3502 3.82172C12.3501 2.36062 13.5389 1.17188 15 1.17188C16.4611 1.17188 17.6499 2.36063 17.6499 3.82131L17.6484 3.86566C17.6358 4.30992 18.1049 4.60705 18.5015 4.40379C18.8771 4.21125 19.2826 4.11357 19.7067 4.11357C21.1678 4.11357 22.3566 5.30232 22.3566 6.76348C22.3566 7.94414 21.5642 8.99279 20.4297 9.31359C20.1774 9.38496 20.0033 9.61523 20.0033 9.87744V11.1783H9.99684V9.87744C9.99684 9.61523 9.82264 9.38496 9.57039 9.31359C8.4359 8.99273 7.64354 7.94408 7.64354 6.76342ZM7.64354 12.936C7.64354 12.6129 7.90639 12.3501 8.22947 12.3501H8.82496V13.5315H8.22947C7.90639 13.5315 7.64354 13.2687 7.64354 12.9456V12.936ZM7.66281 18.0797C7.91688 17.9125 8.00066 17.5785 7.85564 17.3111C7.34084 16.3618 7.79787 15.1581 8.83609 14.7999C8.9715 17.0988 10.3747 19.0621 12.3549 19.999V21.7682H7.94008C7.61418 21.7682 7.29748 21.8074 6.99326 21.8793C6.08846 20.6704 6.37469 18.9282 7.66281 18.0797ZM4.99609 25.8841C4.99609 24.2607 6.31674 22.94 7.94008 22.94H12.7241L14.0997 24.1191L12.5596 25.4392C12.4297 25.5506 12.355 25.7131 12.355 25.8841V28.8281H4.99609V25.8841ZM25.004 28.8281H13.5268V26.1536C13.8883 25.8437 16.8594 23.297 17.2759 22.94H22.06C23.6833 22.94 25.004 24.2607 25.004 25.884V28.8281Z" fill="#A46850"/>
<path d="M10 25.2937C10.1542 25.2937 10.3053 25.231 10.4143 25.1221C10.5238 25.0125 10.5859 24.8613 10.5859 24.7072C10.5859 24.5531 10.5238 24.4025 10.4143 24.293C10.3053 24.184 10.1542 24.1213 10 24.1213C9.8459 24.1213 9.69537 24.184 9.5858 24.293C9.47682 24.4025 9.41406 24.5531 9.41406 24.7072C9.41406 24.8613 9.47676 25.0125 9.5858 25.1221C9.69537 25.231 9.84654 25.2937 10 25.2937Z" fill="#A46850"/>
<path d="M10 26.475C9.8459 26.475 9.69473 26.5371 9.5858 26.6467C9.47682 26.7557 9.41406 26.9068 9.41406 27.0609C9.41406 27.215 9.47676 27.3656 9.5858 27.4752C9.69473 27.5841 9.8459 27.6469 10 27.6469C10.1547 27.6469 10.3053 27.5842 10.4143 27.4752C10.5238 27.3662 10.5859 27.215 10.5859 27.0609C10.5859 26.9063 10.5238 26.7557 10.4143 26.6467C10.3053 26.5371 10.1542 26.475 10 26.475Z" fill="#A46850"/>
<path d="M17.6484 24.1213C17.4943 24.1213 17.3437 24.184 17.2342 24.293C17.1253 24.4019 17.0625 24.5531 17.0625 24.7072C17.0625 24.8613 17.1252 25.0125 17.2342 25.1221C17.3437 25.231 17.4943 25.2937 17.6484 25.2937C17.8025 25.2937 17.9537 25.231 18.0627 25.1221C18.1716 25.0125 18.2344 24.8613 18.2344 24.7072C18.2344 24.5531 18.1717 24.4019 18.0627 24.293C17.9537 24.184 17.8025 24.1213 17.6484 24.1213Z" fill="#A46850"/>
<path d="M20 24.1213C19.8459 24.1213 19.6947 24.184 19.5852 24.293C19.4762 24.4019 19.4141 24.5531 19.4141 24.7072C19.4141 24.8613 19.4762 25.0125 19.5852 25.1221C19.6947 25.231 19.8459 25.2937 20 25.2937C20.1535 25.2937 20.3047 25.231 20.4143 25.1221C20.5232 25.0125 20.5859 24.8613 20.5859 24.7072C20.5859 24.5531 20.5233 24.4019 20.4143 24.293C20.3047 24.184 20.154 24.1213 20 24.1213Z" fill="#A46850"/>
<path d="M17.6484 26.475C17.4943 26.475 17.3437 26.5371 17.2342 26.6467C17.1253 26.7557 17.0625 26.9063 17.0625 27.0609C17.0625 27.215 17.1252 27.3662 17.2342 27.4752C17.3437 27.5841 17.4943 27.6469 17.6484 27.6469C17.8025 27.6469 17.9537 27.5842 18.0633 27.4752C18.1723 27.3662 18.2344 27.215 18.2344 27.0609C18.2344 26.9063 18.1723 26.7557 18.0633 26.6467C17.9537 26.5371 17.8025 26.475 17.6484 26.475Z" fill="#A46850"/>
<path d="M20 26.475C19.8459 26.475 19.6947 26.5371 19.5858 26.6467C19.4762 26.7557 19.4141 26.9068 19.4141 27.0609C19.4141 27.215 19.4762 27.3656 19.5858 27.4752C19.6947 27.5841 19.8459 27.6469 20 27.6469C20.1541 27.6469 20.3053 27.5842 20.4143 27.4752C20.5232 27.3662 20.5859 27.215 20.5859 27.0609C20.5859 26.9063 20.5233 26.7551 20.4143 26.6467C20.3047 26.5371 20.154 26.475 20 26.475Z" fill="#A46850"/>
</g>
<defs>
<clipPath id="clip0_62_2088">
<rect width="30" height="30" fill="white"/>
</clipPath>
</defs>
</svg>
