<svg width="13" height="13" viewBox="0 0 13 13" fill="none" xmlns="http://www.w3.org/2000/svg">
<g clip-path="url(#clip0_57_143)">
<path d="M11.3743 3.24999C11.3743 4.79374 9.04518 5.95832 5.95768 5.95832C2.87018 5.95832 0.541016 4.79374 0.541016 3.24999C0.541016 1.70624 2.87018 0.541656 5.95768 0.541656C9.04518 0.541656 11.3743 1.70624 11.3743 3.24999ZM7.04102 11.375C4.73893 11.375 2.77268 10.7792 1.62435 9.77707C1.65685 11.31 3.96977 12.4583 7.04102 12.4583C10.1123 12.4583 12.4089 11.3154 12.4577 9.79874C11.3256 10.7792 9.4081 11.375 7.04102 11.375ZM5.95768 9.20832C4.56402 9.23754 3.17929 8.9794 1.88977 8.44999C2.5831 9.54416 4.5656 10.2917 7.04102 10.2917C10.1285 10.2917 12.4577 9.12707 12.4577 7.58332C12.4533 7.24837 12.3454 6.92297 12.1489 6.65166C11.3418 8.20082 9.00727 9.20832 5.95768 9.20832ZM6.49935 7.04166H5.95768H5.41602C3.29268 6.96041 1.56477 6.38082 0.541016 5.47624C0.589766 6.98207 2.90268 8.12499 5.95768 8.12499C9.01268 8.12499 11.3256 6.98207 11.3743 5.46541C10.3289 6.36999 8.60102 6.94957 6.49935 7.04166Z" fill="#EBBBA7"/>
</g>
<defs>
<clipPath id="clip0_57_143">
<rect width="13" height="13" fill="white"/>
</clipPath>
</defs>
</svg>
