<svg width="26" height="26" viewBox="0 0 26 26" fill="none" xmlns="http://www.w3.org/2000/svg">
<path d="M6.90625 8.22656C7.46718 8.22656 7.92188 7.77187 7.92188 7.21094V1.01562C7.92188 0.454695 7.46718 0 6.90625 0C6.34532 0 5.89062 0.454695 5.89062 1.01562V7.21094C5.89062 7.77187 6.34532 8.22656 6.90625 8.22656Z" fill="white"/>
<path d="M10.7148 0C10.1539 0 9.69922 0.454695 9.69922 1.01562V7.36328C9.69922 8.90332 8.44629 10.1562 6.90625 10.1562C5.36621 10.1562 4.11328 8.90332 4.11328 7.36328V1.01562C4.11328 0.454695 3.65859 0 3.09766 0C2.53673 0 2.08203 0.454695 2.08203 1.01562V7.36328C2.08203 9.675 3.71663 11.6119 5.89062 12.0796V24.9844C5.89062 25.5453 6.34532 26 6.90625 26C7.46718 26 7.92188 25.5453 7.92188 24.9844V12.0796C10.0959 11.6119 11.7305 9.675 11.7305 7.36328V1.01562C11.7305 0.454695 11.2758 0 10.7148 0Z" fill="white"/>
<path d="M22.6772 2.70908C21.7188 0.962051 20.4462 0 19.0938 0C17.7413 0 16.4687 0.962051 15.5103 2.70908C14.7334 4.12511 14.2695 5.86503 14.2695 7.36328C14.2695 9.675 15.9041 11.6119 18.0781 12.0796V24.9844C18.0781 25.5453 18.5328 26 19.0938 26C19.6547 26 20.1094 25.5453 20.1094 24.9844V12.0796C22.2834 11.6119 23.918 9.675 23.918 7.36328C23.918 5.86503 23.4541 4.12511 22.6772 2.70908ZM19.0938 10.1562C17.5537 10.1562 16.3008 8.90332 16.3008 7.36328C16.3008 6.20852 16.6803 4.79949 17.2911 3.68606C17.8511 2.6653 18.5418 2.03125 19.0938 2.03125C19.6457 2.03125 20.3364 2.6653 20.8964 3.68606C21.5072 4.79949 21.8867 6.20852 21.8867 7.36328C21.8867 8.90332 20.6338 10.1562 19.0938 10.1562Z" fill="white"/>
</svg>
