<svg width="16" height="16" viewBox="0 0 16 16" fill="none" xmlns="http://www.w3.org/2000/svg">
<path d="M10.5016 0.5C10.5016 0.22375 10.2779 0 10.0016 0C9.72538 0 9.50163 0.22375 9.50163 0.5V3.5C9.50163 3.77562 9.27725 4 9.00163 4C8.726 4 8.50163 3.77562 8.50163 3.5V0.5C8.50163 0.22375 8.27788 0 8.00163 0C7.72538 0 7.50163 0.22375 7.50163 0.5V3.5C7.50163 3.77562 7.27725 4 7.00163 4C6.726 4 6.50163 3.77562 6.50163 3.5V0.5C6.50163 0.22375 6.27788 0 6.00163 0C5.72538 0 5.50163 0.22375 5.50163 0.5C5.50163 3.77431 5.49804 3.54697 5.51007 3.65812C5.47735 3.83084 5.45572 5.58541 6.23663 6.57344C6.3785 6.75281 6.54038 6.90438 6.71975 7.02656C6.74257 7.05656 6.76882 7.08437 6.79882 7.10938C7.19288 7.43844 7.50163 8.15125 7.50163 8.73219C7.50163 10.4077 7.60463 11.7244 6.73132 13.6562C6.57444 14.0031 6.50163 14.2659 6.50163 14.4828C6.50163 15.3194 7.17444 16 8.00163 16C8.82882 16 9.50163 15.3194 9.50163 14.4828C9.50163 14.2659 9.42882 14.0031 9.27194 13.6562C8.38644 11.6974 8.50163 10.2896 8.50163 8.73219C8.50163 8.15125 8.81038 7.43844 9.20444 7.10938C9.23444 7.08437 9.26069 7.05656 9.2835 7.02656C10.2776 6.34934 10.5016 4.94841 10.5016 3.75C10.5016 -1.41594 10.5016 1.35509 10.5016 0.5Z" fill="white"/>
</svg>
