<svg width="30" height="30" viewBox="0 0 30 30" fill="none" xmlns="http://www.w3.org/2000/svg">
<g clip-path="url(#clip0_62_1649)">
<path d="M15 0C12.0175 0.00395632 9.15835 1.19049 7.04942 3.29942C4.94049 5.40835 3.75396 8.26753 3.75 11.25C3.75 19.3266 14.2312 29.4422 14.6766 29.8688C14.7632 29.9529 14.8792 30 15 30C15.1208 30 15.2368 29.9529 15.3234 29.8688C15.7687 29.4422 26.25 19.3266 26.25 11.25C26.246 8.26753 25.0595 5.40835 22.9506 3.29942C20.8417 1.19049 17.9825 0.00395632 15 0V0ZM15 16.4063C13.9802 16.4063 12.9833 16.1038 12.1353 15.5373C11.2874 14.9707 10.6265 14.1654 10.2362 13.2232C9.84598 12.281 9.74387 11.2443 9.94283 10.2441C10.1418 9.24385 10.6329 8.3251 11.354 7.60398C12.0751 6.88287 12.9939 6.39178 13.9941 6.19283C14.9943 5.99387 16.031 6.09598 16.9732 6.48625C17.9154 6.87651 18.7207 7.5374 19.2873 8.38534C19.8538 9.23328 20.1562 10.2302 20.1562 11.25C20.1554 12.6173 19.6119 13.9283 18.6451 14.8951C17.6783 15.8619 16.3673 16.4054 15 16.4063Z" fill="#E4AB93"/>
</g>
<defs>
<clipPath id="clip0_62_1649">
<rect width="30" height="30" fill="white"/>
</clipPath>
</defs>
</svg>
