<svg width="15" height="15" viewBox="0 0 15 15" fill="none" xmlns="http://www.w3.org/2000/svg">
<g clip-path="url(#clip0_51_3186)">
<path d="M13.7499 0.000305176H8.55454C8.21086 0.000305176 7.7305 0.199413 7.48767 0.442062L0.364771 7.56492C-0.12159 8.05073 -0.12159 8.84724 0.364771 9.33246L5.66835 14.6359C6.15361 15.1217 6.94934 15.1217 7.43534 14.6353L14.5582 7.51354C14.8008 7.27093 15 6.78981 15 6.44685V1.25036C15 0.562984 14.4373 0.000305176 13.7499 0.000305176ZM11.2498 5.00033C10.5594 5.00033 9.99975 4.44007 9.99975 3.75028C9.99975 3.05935 10.5594 2.50023 11.2498 2.50023C11.9402 2.50023 12.5 3.05935 12.5 3.75028C12.5001 4.44007 11.9402 5.00033 11.2498 5.00033Z" fill="#EBBBA7"/>
</g>
<defs>
<clipPath id="clip0_51_3186">
<rect width="15" height="15" fill="white"/>
</clipPath>
</defs>
</svg>
