<svg width="33" height="33" viewBox="0 0 33 33" fill="none" xmlns="http://www.w3.org/2000/svg">
<g clip-path="url(#clip0_151_3446)">
<path d="M31.5516 13.4783C30.8785 12.7462 29.96 12.3233 28.9733 12.296C28.9687 12.296 28.9642 12.296 28.9596 12.296C28.955 12.296 28.9505 12.296 28.9459 12.296H28.7276C28.5002 9.34025 27.227 6.59363 25.0988 4.49733C23.1752 2.60565 20.7334 1.41882 18.1004 1.07777C17.9595 0.741246 17.7184 0.454817 17.3956 0.259246C16.8317 -0.0863339 16.1314 -0.0863339 15.5676 0.259246C15.2448 0.454817 15.0037 0.745776 14.8628 1.07777C12.2298 1.42335 9.78795 2.60565 7.86439 4.50195C5.74082 6.58919 4.46756 9.3358 4.2402 12.2916H4.05377C4.04471 12.2916 4.0401 12.2916 4.03104 12.2916C4.02198 12.2916 4.01736 12.2916 4.0083 12.2916C3.99924 12.2916 3.98556 12.2916 3.9765 12.2961H3.97197C1.92114 12.428 0.343163 14.2015 0.447787 16.266C0.447787 16.2705 0.447787 16.2796 0.447787 16.2842C0.447787 16.2978 0.447787 16.3114 0.452317 16.3206C0.452317 16.3343 0.456846 16.3479 0.456846 16.357C0.456846 16.3707 0.461376 16.3843 0.465906 16.3934C0.470435 16.4071 0.470435 16.4162 0.474965 16.4298C0.479494 16.4435 0.479494 16.4526 0.484024 16.4662C0.488553 16.4799 0.493083 16.489 0.497701 16.5027C0.502231 16.5117 0.506761 16.5254 0.511379 16.5345C0.515908 16.5481 0.520438 16.5572 0.529586 16.5709C0.534116 16.5799 0.538645 16.5891 0.543264 16.6027C0.547793 16.6163 0.556941 16.6254 0.566 16.6391C0.57053 16.6481 0.579678 16.6573 0.584207 16.6663C0.593267 16.6754 0.597885 16.6891 0.606944 16.6981C0.616003 16.7072 0.620622 16.7163 0.629681 16.7254C0.63874 16.7345 0.647888 16.7436 0.656947 16.7527C0.666006 16.7617 0.670625 16.7709 0.679684 16.7754C0.688743 16.7845 0.697891 16.7936 0.70695 16.8027C0.716009 16.8117 0.725157 16.8164 0.734216 16.8254C0.743275 16.8345 0.752423 16.8391 0.766012 16.8481C0.775071 16.8572 0.784219 16.8618 0.793278 16.8709C0.802338 16.8754 0.816015 16.8846 0.825074 16.8891C0.834133 16.8936 0.847811 16.9028 0.85687 16.9073C0.865929 16.9118 0.879607 16.9164 0.893284 16.9255C0.902343 16.93 0.916021 16.9346 0.92508 16.9392C0.938758 16.9437 0.952346 16.9482 0.961494 16.9529C0.970554 16.9574 0.984231 16.9619 0.99329 16.9619C1.00697 16.9664 1.02509 16.971 1.03876 16.9756C1.04782 16.9756 1.05697 16.9801 1.06603 16.9847C1.08424 16.9892 1.10244 16.9892 1.12518 16.9937C1.12971 16.9937 1.13886 16.9937 1.14339 16.9982C1.17065 17.0028 1.19339 17.0028 1.22066 17.0028H31.7835C31.8107 17.0028 31.8335 17.0028 31.8607 16.9982C31.8653 16.9982 31.8744 16.9982 31.879 16.9937C31.8972 16.9892 31.9154 16.9892 31.9381 16.9847C31.9472 16.9847 31.9563 16.9801 31.9654 16.9756C31.979 16.9711 31.9972 16.9665 32.0108 16.9665C32.0199 16.962 32.0336 16.9575 32.0426 16.9529C32.0563 16.9483 32.0654 16.9438 32.0791 16.9392C32.0927 16.9347 32.1018 16.9301 32.1108 16.9255C32.1199 16.9209 32.1336 16.9164 32.1426 16.9118C32.1517 16.9073 32.1654 16.8981 32.1744 16.8936C32.1835 16.8891 32.1972 16.8799 32.2062 16.8754C32.2153 16.8664 32.2244 16.8617 32.238 16.8527C32.2471 16.8436 32.2562 16.839 32.2653 16.8299C32.2744 16.8209 32.2835 16.8163 32.2926 16.8072C32.3016 16.7981 32.3108 16.789 32.3198 16.7845C32.3289 16.7754 32.338 16.7663 32.3426 16.7572C32.3516 16.7481 32.3608 16.739 32.3698 16.7299C32.3789 16.7163 32.388 16.7072 32.3926 16.6981C32.4016 16.6891 32.4062 16.6754 32.4153 16.6663C32.4198 16.6573 32.429 16.6481 32.4335 16.6391C32.4426 16.63 32.4472 16.6163 32.4517 16.6073C32.4563 16.5982 32.4608 16.5891 32.4699 16.5755C32.4745 16.5618 32.4836 16.5527 32.4881 16.5391C32.4927 16.53 32.4972 16.5163 32.5018 16.5073C32.5063 16.4936 32.5109 16.4845 32.5155 16.4709C32.52 16.4572 32.5246 16.4481 32.5246 16.4344C32.5291 16.4208 32.5291 16.4117 32.5336 16.398C32.5381 16.3844 32.5381 16.3708 32.5427 16.3616C32.5427 16.3479 32.5472 16.3389 32.5472 16.3252C32.5472 16.3115 32.5517 16.2979 32.5517 16.2843C32.5517 16.2797 32.5517 16.2706 32.5517 16.2661C32.6065 15.2426 32.2382 14.2286 31.5516 13.4783ZM16.4862 2.51009C22.0476 2.51009 26.6905 6.83006 27.1815 12.2869H5.79544C6.28659 6.83006 10.9249 2.51009 16.4862 2.51009ZM2.0803 15.4519C2.33493 14.5652 3.11713 13.8967 4.08113 13.8376H4.95418C4.95871 13.8376 4.96324 13.8376 4.96786 13.8376C4.97248 13.8376 4.97692 13.8376 4.98154 13.8376C4.98616 13.8376 4.9906 13.8376 4.99974 13.8376H28.9414C29.5098 13.8558 30.0328 14.1014 30.4238 14.5242C30.6649 14.788 30.8421 15.1063 30.9377 15.4519H2.0803Z" fill="white"/>
<path d="M14.9175 26.993L14.1899 25.6833C14.1854 25.6743 14.1808 25.6651 14.1762 25.6606L13.385 24.3783C13.3804 24.3692 13.3759 24.3646 13.3713 24.3555L12.521 23.105C12.5164 23.096 12.5073 23.0868 12.5028 23.0778L11.5933 21.8727C11.5888 21.8682 11.5842 21.859 11.5796 21.8545L10.6247 20.6767C10.6202 20.6677 10.611 20.663 10.6065 20.654L9.60606 19.5354L9.60153 19.5308L9.597 19.5263C9.58333 19.5081 9.57427 19.4808 9.57427 19.4671C9.57427 19.4535 9.58333 19.4354 9.597 19.4262C9.85617 19.2943 10.1472 19.2216 10.4383 19.2261C10.6429 19.2306 10.8475 19.317 10.9839 19.4671L10.9885 19.4717L10.993 19.4762L12.0798 20.6085C12.0844 20.613 12.0935 20.6222 12.098 20.6267L13.2303 21.7135C13.2349 21.7181 13.244 21.7272 13.2486 21.7318L14.4263 22.7731C14.4309 22.7776 14.4354 22.7822 14.4445 22.7868L15.6496 23.7872C15.6496 23.7872 15.6541 23.7872 15.6541 23.7917C15.6541 23.7917 15.6586 23.7917 15.6586 23.7963C16.4862 24.4602 17.5822 24.8194 18.7599 24.8194C18.819 24.8194 18.8826 24.8194 18.9418 24.8149C18.9508 24.8149 18.9555 24.8149 18.9645 24.8149C19.3146 24.8012 19.6557 24.7012 19.9559 24.5148C21.2382 23.7235 22.0204 22.2911 22.0022 20.7814C22.0022 20.2221 22.3932 19.7083 22.9753 19.5036C22.989 19.4991 23.0253 19.5036 23.0526 19.5264C23.0799 19.5446 23.0799 19.5673 23.0799 19.5809C23.0708 20.4722 22.9662 21.3634 22.7798 22.2274V22.232V22.2365C22.6161 23.0368 22.6843 23.8508 22.9753 24.5966C22.989 24.6284 22.9981 24.6603 23.0071 24.6921C23.2254 25.5015 23.239 26.3518 23.0571 27.1521C22.9799 27.4932 23.1935 27.8342 23.5346 27.9161C23.5846 27.9252 23.6301 27.9343 23.6755 27.9343C23.9666 27.9343 24.2258 27.7342 24.294 27.4387C24.5213 26.4428 24.5031 25.3787 24.2348 24.3692C24.2121 24.2919 24.1893 24.2146 24.1575 24.1373C23.9574 23.6234 23.912 23.055 24.0257 22.4957C24.2303 21.5453 24.3394 20.5722 24.353 19.6037C24.3576 19.1671 24.1484 18.7579 23.7937 18.5032C23.4344 18.2441 22.9615 18.1712 22.5522 18.3168C21.4609 18.6988 20.7287 19.6947 20.7287 20.7951V20.7996V20.8042C20.747 21.8865 20.2058 22.8732 19.2873 23.4462C19.1781 23.5144 19.0508 23.5508 18.9235 23.5553C18.0595 23.5871 17.2592 23.3734 16.6453 22.9551L14.6809 18.6397V18.6351C14.3853 17.9894 13.6987 17.5528 12.9347 17.5256C12.4208 17.5074 11.8115 17.7575 11.3886 18.194C11.1067 18.0439 10.7838 17.9576 10.4609 17.9576C10.4564 17.9576 10.4564 17.9576 10.4519 17.9576C9.95617 17.953 9.4605 18.0712 9.01944 18.2986C8.65112 18.4896 8.39649 18.8398 8.32366 19.2535C8.25545 19.6583 8.37819 20.0766 8.65565 20.3813L8.66018 20.3859L9.64692 21.4909L10.5837 22.6459L11.4749 23.8328L12.3071 25.0606L13.0802 26.3201L13.8032 27.6206C13.8032 27.6206 13.8032 27.6252 13.8077 27.6252C14.5398 28.9075 15.3902 30.0944 16.336 31.1539C16.4634 31.2948 16.6361 31.3676 16.8135 31.3676C16.9636 31.3676 17.1136 31.313 17.2364 31.2084C17.5002 30.9765 17.523 30.5718 17.291 30.308C16.409 29.3121 15.6087 28.1935 14.9175 26.993ZM12.8849 18.7942C13.1714 18.8033 13.426 18.9534 13.5215 19.167L14.3673 21.0178L14.1081 20.7904L12.9985 19.7173L12.3437 19.0351C12.5074 18.8851 12.7439 18.785 12.8849 18.7942Z" fill="white"/>
<path d="M25.8447 29.9942C25.34 28.9483 24.2077 28.4117 23.1436 28.7209C22.4569 28.9165 21.7884 29.1165 21.1382 29.4167C20.9654 29.494 20.7926 29.5849 20.6016 29.685C20.3242 29.8305 20.0604 29.9851 19.7967 30.1488C19.4147 30.3899 19.0374 30.6672 18.6462 30.9946C18.4279 31.181 18.2142 31.3629 18.0051 31.5721L17.9187 31.6585C17.8322 31.7449 17.7504 31.8267 17.664 31.9131C17.4184 32.1632 17.4184 32.568 17.6731 32.8136C17.7958 32.9363 17.9596 32.9954 18.1188 32.9954C18.2824 32.9954 18.4461 32.9318 18.5735 32.8045C18.6554 32.7226 18.7372 32.6408 18.8191 32.5589L18.9055 32.4725C19.0783 32.2997 19.2647 32.1405 19.4694 31.9678C19.8195 31.6722 20.1378 31.4358 20.4743 31.2265C20.7107 31.081 20.9427 30.9446 21.1974 30.8127C21.3656 30.7218 21.5247 30.6445 21.6748 30.5763C22.2432 30.3125 22.8344 30.1352 23.4983 29.9487C23.9621 29.8168 24.4669 30.0669 24.6988 30.5536L25.7129 32.6408C25.8221 32.8682 26.0494 33.0001 26.2858 33.0001C26.3813 33.0001 26.4723 32.9773 26.5632 32.9364C26.8815 32.7818 27.0134 32.3998 26.8588 32.0861L25.8447 29.9942Z" fill="white"/>
<path d="M13.3713 4.36998C10.7793 5.69324 8.79668 7.92143 7.78268 10.6498C7.67353 10.9454 7.82363 11.2728 8.1192 11.3819C8.18288 11.4047 8.25109 11.4184 8.3193 11.4184C8.5512 11.4184 8.76498 11.2774 8.85131 11.05C9.7653 8.58994 11.557 6.57997 13.8943 5.3886C14.1717 5.24765 14.2854 4.90207 14.1399 4.62461C13.9943 4.33818 13.6533 4.2245 13.3713 4.36998Z" fill="white"/>
</g>
<defs>
<clipPath id="clip0_151_3446">
<rect width="33" height="33" fill="white"/>
</clipPath>
</defs>
</svg>
