<?xml version="1.0" encoding="utf-8"?>
<!-- Generator: Adobe Illustrator 25.4.1, SVG Export Plug-In . SVG Version: 6.00 Build 0)  -->
<svg version="1.1" id="Слой_1" xmlns="http://www.w3.org/2000/svg" xmlns:xlink="http://www.w3.org/1999/xlink" x="0px" y="0px"
	 viewBox="0 0 26 26" enable-background="new 0 0 26 26" xml:space="preserve">
<g>
	<path fill="#E4AB93" d="M19.2,14.9c-0.1,0-1.9-1-2.3-1.1c-0.1,0-0.3-0.1-0.4-0.1c-0.3,0-0.5,0.1-0.6,0.4c-0.2,0.3-0.8,1-0.9,1.2
		c0,0-0.1,0.1-0.1,0.1c0,0-0.3-0.1-0.4-0.2c-2-0.9-3.6-3-3.8-3.4c0-0.1,0-0.1,0-0.1c0,0,0.1-0.1,0.1-0.1c0.1-0.1,0.2-0.2,0.3-0.4
		c0.1-0.1,0.1-0.1,0.2-0.2c0.2-0.2,0.2-0.3,0.3-0.5l0-0.1c0.2-0.4,0-0.7,0-0.8c0-0.1-0.8-2-0.9-2.2c-0.2-0.5-0.5-0.7-0.9-0.7
		c0,0,0,0-0.1,0C9.4,6.7,8.5,6.9,8,7.1C7.6,7.4,6.8,8.3,6.8,9.9c0,1.4,0.9,2.8,1.3,3.3c0,0,0,0,0.1,0.1c1.5,2.2,3.4,3.8,5.3,4.6
		c1.8,0.7,2.7,0.8,3.2,0.8c0,0,0,0,0,0c0.2,0,0.4,0,0.5,0l0.1,0c0.6-0.1,2-0.8,2.3-1.7c0.2-0.7,0.3-1.5,0.1-1.7
		C19.7,15.1,19.5,15.1,19.2,14.9z"/>
	<path fill="#E4AB93" d="M13.2,0C6.2,0,0.5,5.7,0.5,12.7c0,2.3,0.6,4.5,1.8,6.4L0,25.5c0,0.1,0,0.3,0.1,0.3C0.2,26,0.2,26,0.3,26
		c0,0,0.1,0,0.1,0l6.7-2.1c1.8,1,3.9,1.5,6,1.5c7,0,12.8-5.7,12.8-12.7C26,5.7,20.3,0,13.2,0z M13.2,22.7c-2,0-3.9-0.6-5.6-1.7
		C7.6,21,7.5,21,7.5,21c0,0-0.1,0-0.1,0L4,22.1l1.1-3.2c0-0.1,0-0.2,0-0.3c-1.3-1.7-1.9-3.8-1.9-5.9c0-5.5,4.5-10,10.1-10
		c5.6,0,10.1,4.5,10.1,10C23.3,18.2,18.8,22.7,13.2,22.7z"/>
</g>
</svg>
