<svg width="22" height="22" viewBox="0 0 22 22" fill="none" xmlns="http://www.w3.org/2000/svg">
<g clip-path="url(#clip0_151_2365)">
<path d="M22 8.24999H18.2642L14.3395 1.70868C14.1448 1.38374 13.7225 1.27765 13.3962 1.47303C13.0706 1.66841 12.9652 2.09069 13.1606 2.41632L16.6608 8.24999H5.33928L8.83947 2.41627C9.03485 2.09064 8.92945 1.66836 8.60382 1.47298C8.27685 1.27761 7.85592 1.3837 7.66054 1.70863L3.7358 8.24994H0V9.62495H1.49216L3.23876 18.9418C3.42137 19.9173 4.27402 20.625 5.26638 20.625H16.7337C17.726 20.625 18.5786 19.9173 18.7606 18.9425L20.5078 9.62495H22C22 9.62495 22 8.24999 22 8.24999ZM17.409 18.6894C17.3486 19.0143 17.0646 19.25 16.7336 19.25H5.26638C4.93538 19.25 4.6514 19.0144 4.5903 18.6887L2.89068 9.62495H19.1094L17.409 18.6894Z" fill="white"/>
</g>
<defs>
<clipPath id="clip0_151_2365">
<rect width="22" height="22" fill="white"/>
</clipPath>
</defs>
</svg>
