<svg width="35" height="35" viewBox="0 0 35 35" fill="none" xmlns="http://www.w3.org/2000/svg">
<path d="M22.6788 18.9527L19.7475 21.8939C18.5588 23.0868 16.4673 23.1125 15.2529 21.8939L12.3214 18.9527L1.79297 29.5153C2.18487 29.6965 2.61697 29.8047 3.07635 29.8047H31.924C32.3834 29.8047 32.8153 29.6967 33.2071 29.5154L22.6788 18.9527Z" fill="#E4AB93"/>
<path d="M31.9239 5.19531H3.07621C2.61684 5.19531 2.18474 5.30346 1.79297 5.48468L13.0433 16.7724C13.0441 16.7731 13.045 16.7733 13.0457 16.774C13.0465 16.7748 13.0466 16.7758 13.0466 16.7758L16.7047 20.446C17.0933 20.8346 17.9069 20.8346 18.2955 20.446L21.9528 16.7764C21.9528 16.7764 21.9537 16.7748 21.9545 16.774C21.9545 16.774 21.9561 16.7731 21.9569 16.7724L33.207 5.48461C32.8152 5.30332 32.3832 5.19531 31.9239 5.19531Z" fill="#E4AB93"/>
<path d="M0.327168 6.91876C0.124414 7.32878 0 7.78392 0 8.27146V26.7285C0 27.216 0.124277 27.6712 0.3271 28.0812L10.8738 17.5003L0.327168 6.91876Z" fill="#E4AB93"/>
<path d="M34.6716 6.91864L24.125 17.5003L34.6716 28.0813C34.8743 27.6713 34.9987 27.2162 34.9987 26.7285V8.27147C34.9987 7.7838 34.8743 7.32866 34.6716 6.91864Z" fill="#E4AB93"/>
</svg>
