<svg width="28" height="28" viewBox="0 0 28 28" fill="none" xmlns="http://www.w3.org/2000/svg">
<path d="M26.1363 9.55297H17.509L15.8239 4.55985C15.7767 3.59462 14.9768 2.82385 14 2.82385C13.0233 2.82385 12.2233 3.59462 12.1762 4.55979L10.4909 9.55286H1.86369C0.836061 9.55297 0 10.389 0 11.4167V23.3125C0 24.3402 0.836061 25.1762 1.86369 25.1762H3.85502C4.13524 25.1762 4.3623 24.9491 4.3623 24.6689C4.3623 24.3887 4.13524 24.1616 3.85502 24.1616H1.86369C1.39546 24.1616 1.01451 23.7807 1.01451 23.3124V11.4167C1.01451 10.9484 1.39546 10.5675 1.86369 10.5675H10.8535C10.854 10.5675 10.8546 10.5676 10.8551 10.5676C10.8557 10.5676 10.8563 10.5675 10.8568 10.5675H17.1431C17.1437 10.5675 17.1443 10.5676 17.1448 10.5676C17.1454 10.5676 17.1459 10.5675 17.1465 10.5675H26.1363C26.6045 10.5675 26.9855 10.9484 26.9855 11.4167V23.3125C26.9855 23.7807 26.6045 24.1617 26.1363 24.1617H5.47831C5.19809 24.1617 4.97103 24.3888 4.97103 24.669C4.97103 24.9491 5.19809 25.1762 5.47831 25.1762H26.1363C27.1639 25.1762 28 24.3402 28 23.3125V11.4167C27.9999 10.389 27.1639 9.55297 26.1363 9.55297ZM14 3.83847C14.4474 3.83847 14.8115 4.20258 14.8115 4.65003C14.8115 5.09748 14.4474 5.46159 14 5.46159C13.5525 5.46159 13.1884 5.09748 13.1884 4.65003C13.1884 4.20258 13.5525 3.83847 14 3.83847ZM11.5616 9.55297L12.7635 5.99233C13.089 6.29245 13.5234 6.47615 13.9999 6.47615C14.4765 6.47615 14.9109 6.29245 15.2363 5.99233L16.4381 9.55297H11.5616Z" fill="#A46850"/>
<path d="M17.6685 14.3856C17.3883 14.3856 17.1613 14.6127 17.1613 14.8928V18.1139L14.9062 14.6179C14.7842 14.4289 14.5523 14.3427 14.3366 14.4063C14.1209 14.4698 13.9727 14.6679 13.9727 14.8928V19.8361C13.9727 20.1163 14.1997 20.3434 14.4799 20.3434C14.7602 20.3434 14.9872 20.1163 14.9872 19.8361V16.6151L17.2423 20.1111C17.3374 20.2585 17.4994 20.3434 17.6685 20.3434C17.7162 20.3434 17.7645 20.3366 17.8119 20.3227C18.0276 20.2592 18.1758 20.0611 18.1758 19.8361V14.8928C18.1758 14.6127 17.9488 14.3856 17.6685 14.3856Z" fill="#A46850"/>
<path d="M6.39632 17.8401C7.0161 17.5521 7.44698 16.9241 7.44698 16.1969C7.44698 15.1982 6.63449 14.3857 5.63584 14.3857H4.55806C4.27784 14.3857 4.05078 14.6128 4.05078 14.893V19.8363C4.05078 20.1164 4.27784 20.3435 4.55806 20.3435C4.83828 20.3435 5.06534 20.1164 5.06534 19.8363V18.0081H5.33358L6.45391 20.0777C6.54567 20.2473 6.72024 20.3436 6.90049 20.3436C6.98197 20.3436 7.06477 20.3239 7.14149 20.2823C7.38792 20.149 7.47946 19.8411 7.34608 19.5948L6.39632 17.8401ZM5.63715 16.9934C5.636 16.9934 5.63491 16.9935 5.63376 16.9935H5.06534V15.4001H5.63584C6.07509 15.4001 6.43247 15.7575 6.43247 16.1968C6.43247 16.6356 6.07575 16.9927 5.63715 16.9934Z" fill="#A46850"/>
<path d="M12.047 17.885C12.3273 17.885 12.5543 17.6579 12.5543 17.3777C12.5543 17.0976 12.3273 16.8704 12.047 16.8704H10.2021V15.4002H12.047V15.4001C12.3273 15.4001 12.5543 15.173 12.5543 14.8928C12.5543 14.6127 12.3273 14.3856 12.047 14.3856H9.69478C9.41456 14.3856 9.1875 14.6127 9.1875 14.8928V19.8361C9.1875 20.1163 9.41456 20.3434 9.69478 20.3434H12.047C12.3273 20.3434 12.5543 20.1163 12.5543 19.8361C12.5543 19.556 12.3273 19.3289 12.047 19.3289H10.2021V17.885H12.047V17.885Z" fill="#A46850"/>
<path d="M21.6127 18.4471C21.3325 18.4471 21.1055 18.6742 21.1055 18.9544V19.8363C21.1055 20.1164 21.3325 20.3435 21.6127 20.3435C21.893 20.3435 22.12 20.1164 22.12 19.8363V18.9544C22.12 18.6742 21.8929 18.4471 21.6127 18.4471Z" fill="#A46850"/>
<path d="M23.4436 14.3856H19.7846C19.5044 14.3856 19.2773 14.6127 19.2773 14.8928C19.2773 15.173 19.5044 15.4001 19.7846 15.4001H21.1069V17.6016C21.1069 17.8817 21.334 18.1088 21.6142 18.1088C21.8944 18.1088 22.1215 17.8817 22.1215 17.6016V15.4001H23.4437C23.7239 15.4001 23.951 15.173 23.951 14.8928C23.9509 14.6127 23.7238 14.3856 23.4436 14.3856Z" fill="#A46850"/>
</svg>
