<svg width="30" height="30" viewBox="0 0 30 30" fill="none" xmlns="http://www.w3.org/2000/svg">
<g clip-path="url(#clip0_62_2083)">
<path d="M13.5938 21.0703V15.4688C13.5938 15.3444 13.5444 15.2252 13.4565 15.1373C13.3686 15.0494 13.2493 15 13.125 15C10.2621 15 9.86077 19.9121 9.84506 20.1211C9.8381 20.2139 9.8589 20.3066 9.90481 20.3875C9.95072 20.4684 10.0197 20.5338 10.1029 20.5754L10.7813 20.9147V21.0705L10.418 24.7038C10.3984 24.8993 10.4201 25.0967 10.4815 25.2834C10.5429 25.47 10.6428 25.6417 10.7746 25.7873C10.9064 25.933 11.0673 26.0494 11.2469 26.1291C11.4265 26.2088 11.6207 26.25 11.8172 26.25H12.5578C12.7543 26.25 12.9486 26.2088 13.1282 26.1291C13.3078 26.0494 13.4686 25.933 13.6005 25.7873C13.7323 25.6417 13.8321 25.47 13.8936 25.2834C13.955 25.0967 13.9766 24.8993 13.9571 24.7038L13.5938 21.0703ZM10.8134 19.8826C10.8947 19.2253 11.0392 18.5774 11.245 17.9479C11.6052 16.8879 12.0785 16.2428 12.6563 16.0229V20.625H11.7188C11.7188 20.538 11.6945 20.4526 11.6488 20.3786C11.603 20.3045 11.5375 20.2447 11.4597 20.2058L10.8134 19.8826ZM12.9052 25.1583C12.8615 25.2071 12.808 25.2461 12.7481 25.2726C12.6882 25.2992 12.6234 25.3128 12.5578 25.3125H11.8172C11.7517 25.3125 11.6869 25.2988 11.627 25.2722C11.5671 25.2456 11.5135 25.2068 11.4695 25.1582C11.4256 25.1096 11.3923 25.0524 11.3718 24.9901C11.3514 24.9279 11.3442 24.8621 11.3507 24.7969L11.6742 21.5625H12.7008L13.0243 24.7969C13.0312 24.8621 13.0242 24.928 13.0037 24.9903C12.9832 25.0526 12.9497 25.1099 12.9054 25.1583H12.9052Z" fill="#A46850"/>
<path d="M28.5938 0.46875H24.8438C24.7194 0.46875 24.6002 0.518136 24.5123 0.606044C24.4244 0.693951 24.375 0.81318 24.375 0.9375V1.40625H14.5888C14.165 1.40655 13.7481 1.51286 13.3759 1.71551L8.78666 4.21875H3.28125C2.4927 4.21875 1.875 5.04234 1.875 6.09375C1.875 7.07508 2.41318 7.85742 3.12604 7.95768L1.01268 15.112C1.0108 15.1184 1.00904 15.1248 1.0074 15.1312C0.961 15.3171 0.937525 15.508 0.9375 15.6996V29.0625C0.9375 29.1868 0.986886 29.306 1.07479 29.394C1.1627 29.4819 1.28193 29.5312 1.40625 29.5312H22.5C22.6243 29.5312 22.7435 29.4819 22.8315 29.394C22.9194 29.306 22.9688 29.1868 22.9688 29.0625V15.7388C22.9688 15.5149 22.9367 15.2922 22.8735 15.0774L20.9204 8.43709C21.5565 8.43243 22.1675 8.18894 22.6324 7.7549C23.0974 7.32086 23.3822 6.72796 23.4305 6.09375H24.375V7.03125C24.375 7.15557 24.4244 7.2748 24.5123 7.36271C24.6002 7.45061 24.7194 7.5 24.8438 7.5H28.5938C28.7181 7.5 28.8373 7.45061 28.9252 7.36271C29.0131 7.2748 29.0625 7.15557 29.0625 7.03125V0.9375C29.0625 0.81318 29.0131 0.693951 28.9252 0.606044C28.8373 0.518136 28.7181 0.46875 28.5938 0.46875ZM2.8125 6.09375C2.8125 5.52146 3.09012 5.15625 3.28125 5.15625H16.6809L14.8059 7.03125H3.28125C3.09012 7.03125 2.8125 6.66604 2.8125 6.09375ZM17.4137 15.1312C17.3673 15.3171 17.3438 15.508 17.3438 15.6996V28.5938H1.875V15.6996C1.87504 15.5877 1.8884 15.4762 1.91479 15.3674L4.10027 7.96875H13.9578C13.7131 8.38218 13.6202 8.86799 13.6951 9.34254C13.77 9.81709 14.008 10.2507 14.3681 10.5687C14.7282 10.8866 15.188 11.0691 15.6681 11.0847C16.1483 11.1002 16.6189 10.9479 16.9988 10.6539L19.2539 8.89975L17.4189 15.112C17.417 15.1184 17.4153 15.1249 17.4137 15.1312ZM20.1562 27.3817L21.3683 28.5938H18.9442L20.1562 27.3817ZM21.9741 15.3421C22.012 15.4709 22.0313 15.6045 22.0312 15.7388V27.9308L20.625 26.5246V16.4062C20.625 16.2819 20.5756 16.1627 20.4877 16.0748C20.3998 15.9869 20.2806 15.9375 20.1562 15.9375C20.0319 15.9375 19.9127 15.9869 19.8248 16.0748C19.7369 16.1627 19.6875 16.2819 19.6875 16.4062V26.5246L18.2812 27.9309V15.6996C18.2813 15.5877 18.2946 15.4762 18.321 15.3674L20.155 9.15791L21.9741 15.3421ZM24.375 5.15625H23.2484C23.05 5.15648 22.8598 5.23541 22.7195 5.37571C22.5792 5.51602 22.5002 5.70625 22.5 5.90467C22.4995 6.32763 22.3313 6.73313 22.0322 7.03221C21.7331 7.33129 21.3276 7.49952 20.9047 7.5H19.7524C19.6061 7.50025 19.4641 7.54899 19.3485 7.63857L16.4231 9.91406C16.1969 10.0902 15.912 10.1735 15.6264 10.1468C15.3409 10.1202 15.0763 9.98569 14.8866 9.77073C14.6968 9.55577 14.5961 9.27654 14.6051 8.98993C14.6141 8.70333 14.732 8.43093 14.9348 8.22826L18.1439 5.01914C18.2095 4.9536 18.2542 4.87006 18.2723 4.77911C18.2905 4.68815 18.2812 4.59386 18.2457 4.50818C18.2102 4.42249 18.1501 4.34925 18.073 4.29773C17.9959 4.24621 17.9052 4.21872 17.8125 4.21875H10.7446L13.8249 2.53852C14.0593 2.41088 14.3219 2.34393 14.5888 2.34375H24.375V5.15625ZM28.125 6.5625H25.3125V1.40625H28.125V6.5625Z" fill="#A46850"/>
<path d="M9.375 15.4688C9.375 15.3444 9.32561 15.2252 9.23771 15.1373C9.1498 15.0494 9.03057 15 8.90625 15C8.78193 15 8.6627 15.0494 8.57479 15.1373C8.48689 15.2252 8.4375 15.3444 8.4375 15.4688V16.875H7.5V15.4688C7.5 15.3444 7.45061 15.2252 7.36271 15.1373C7.2748 15.0494 7.15557 15 7.03125 15C6.90693 15 6.7877 15.0494 6.69979 15.1373C6.61189 15.2252 6.5625 15.3444 6.5625 15.4688V16.875H5.625V15.4688C5.625 15.3444 5.57561 15.2252 5.48771 15.1373C5.3998 15.0494 5.28057 15 5.15625 15C5.03193 15 4.9127 15.0494 4.82479 15.1373C4.73689 15.2252 4.6875 15.3444 4.6875 15.4688V17.3438H4.68838C4.68805 17.4165 4.70471 17.4883 4.73701 17.5534L5.61703 19.3135L5.2292 24.7436C5.21544 24.9362 5.2415 25.1296 5.30576 25.3117C5.37002 25.4938 5.47109 25.6607 5.60269 25.802C5.73429 25.9434 5.89358 26.0561 6.07065 26.1332C6.24772 26.2102 6.43876 26.25 6.63187 26.25H7.43063C7.62374 26.25 7.81478 26.2102 7.99185 26.1332C8.16892 26.0561 8.32821 25.9434 8.45981 25.802C8.59141 25.6607 8.69248 25.4938 8.75674 25.3117C8.821 25.1296 8.84706 24.9362 8.8333 24.7436L8.44547 19.3135L9.32549 17.5534C9.35779 17.4883 9.37444 17.4165 9.37412 17.3438H9.375V15.4688ZM8.14781 17.8125L7.67906 18.75H6.38344L5.91469 17.8125H8.14781ZM7.77375 25.1631C7.73006 25.2105 7.67699 25.2482 7.61791 25.2739C7.55884 25.2997 7.49505 25.3128 7.43063 25.3125H6.63187C6.56751 25.3125 6.50383 25.2992 6.44481 25.2736C6.38579 25.2479 6.33269 25.2103 6.28882 25.1632C6.24496 25.1161 6.21126 25.0605 6.18984 24.9998C6.16841 24.9391 6.15972 24.8746 6.1643 24.8104L6.53021 19.6875H7.53217L7.89809 24.8104C7.90297 24.8746 7.89444 24.9391 7.87303 24.9999C7.85163 25.0606 7.81781 25.1162 7.77375 25.1631Z" fill="#A46850"/>
</g>
<defs>
<clipPath id="clip0_62_2083">
<rect width="30" height="30" fill="white"/>
</clipPath>
</defs>
</svg>
