<svg width="13" height="13" viewBox="0 0 13 13" fill="none" xmlns="http://www.w3.org/2000/svg">
<g clip-path="url(#clip0_57_122)">
<path d="M6.49974 6.75058C4.64258 6.75058 3.12445 5.23244 3.12445 3.37529C3.12445 1.51813 4.64258 0 6.49974 0C8.35689 0 9.875 1.51813 9.875 3.37529C9.875 5.23244 8.35687 6.75058 6.49974 6.75058Z" fill="#EBBBA7"/>
<path d="M0.706654 9.44786C0.795097 9.22676 0.912994 9.02042 1.04565 8.82881C1.72366 7.82652 2.77012 7.16327 3.94926 7.00113C4.09664 6.98641 4.25877 7.01586 4.3767 7.1043C4.99575 7.56122 5.7327 7.79704 6.49916 7.79704C7.26562 7.79704 8.00257 7.56122 8.62162 7.1043C8.73954 7.01586 8.90168 6.97165 9.04905 7.00113C10.2282 7.16327 11.2894 7.82652 11.9527 8.82881C12.0853 9.02042 12.2032 9.24152 12.2917 9.44786C12.3359 9.5363 12.3211 9.63947 12.2769 9.72792C12.159 9.93426 12.0116 10.1406 11.879 10.3175C11.6726 10.5975 11.4515 10.8481 11.201 11.0839C10.9946 11.2903 10.7588 11.4819 10.523 11.6735C9.35857 12.5431 7.95833 13 6.51389 13C5.06944 13 3.6692 12.5431 2.50482 11.6735C2.269 11.4966 2.03317 11.2903 1.8268 11.0839C1.59098 10.8481 1.35516 10.5975 1.14879 10.3175C1.00141 10.1259 0.868731 9.93426 0.750834 9.72792C0.677173 9.63947 0.662446 9.53627 0.706654 9.44786Z" fill="#EBBBA7"/>
</g>
<defs>
<clipPath id="clip0_57_122">
<rect width="13" height="13" fill="white" transform="matrix(-1 0 0 1 13 0)"/>
</clipPath>
</defs>
</svg>
